<?xml version="1.0" encoding="utf-8"?>
<!-- Generator: Adobe Illustrator 14.0.0, SVG Export Plug-In . SVG Version: 6.00 Build 43363)  -->
<!DOCTYPE svg PUBLIC "-//W3C//DTD SVG 1.1//EN" "http://www.w3.org/Graphics/SVG/1.1/DTD/svg11.dtd">
<svg version="1.1" id="Layer_1" xmlns="http://www.w3.org/2000/svg" xmlns:xlink="http://www.w3.org/1999/xlink" x="0px" y="0px"
	 width="611.521px" height="46.478px" viewBox="0 0 611.521 46.478" enable-background="new 0 0 611.521 46.478"
	 xml:space="preserve">
<g id="Titleist_Logos">
	<g>
		<path fill="#FFFFFF" d="M46.005,45.976h-8.177c-0.915,0-1.668-0.215-2.263-0.642c-0.595-0.425-1.003-0.973-1.233-1.641
			l-2.685-7.927H14.356l-2.685,7.927c-0.209,0.584-0.613,1.108-1.217,1.577c-0.603,0.467-1.343,0.702-2.215,0.702H0L17.603,0.498
			h10.8L46.005,45.976z M16.791,28.592h12.42L25.03,16.14c-0.27-0.79-0.588-1.723-0.952-2.792c-0.364-1.071-0.723-2.232-1.077-3.481
			c-0.331,1.271-0.676,2.446-1.029,3.529c-0.355,1.083-0.687,2.02-0.999,2.81L16.791,28.592z"/>
		<path fill="#FFFFFF" d="M78.369,34.209c0.25,0,0.5,0.046,0.749,0.142c0.25,0.093,0.489,0.254,0.717,0.482l4.183,4.401
			c-1.832,2.392-4.125,4.196-6.883,5.414c-2.756,1.217-6.018,1.829-9.784,1.829c-3.453,0-6.549-0.588-9.283-1.765
			c-2.737-1.176-5.056-2.799-6.959-4.871c-1.903-2.067-3.365-4.523-4.385-7.363c-1.019-2.84-1.529-5.925-1.529-9.254
			c0-3.393,0.584-6.508,1.748-9.349c1.165-2.84,2.792-5.29,4.885-7.351c2.093-2.062,4.593-3.66,7.506-4.807
			c2.913-1.144,6.127-1.716,9.643-1.716c1.706,0,3.313,0.151,4.823,0.452c1.51,0.303,2.917,0.717,4.229,1.248
			c1.309,0.53,2.517,1.166,3.619,1.903c1.103,0.74,2.08,1.558,2.935,2.453l-3.557,4.774c-0.228,0.29-0.5,0.559-0.812,0.794
			c-0.313,0.239-0.75,0.36-1.311,0.36c-0.375,0-0.728-0.085-1.062-0.25c-0.331-0.167-0.687-0.369-1.061-0.608
			c-0.375-0.237-0.786-0.499-1.233-0.777c-0.448-0.281-0.978-0.543-1.591-0.782c-0.613-0.236-1.333-0.441-2.153-0.606
			c-0.823-0.166-1.785-0.25-2.888-0.25c-1.916,0-3.662,0.338-5.245,1.018c-1.58,0.673-2.938,1.645-4.073,2.9
			c-1.135,1.261-2.02,2.784-2.653,4.573c-0.633,1.79-0.951,3.798-0.951,6.023c0,2.33,0.316,4.4,0.951,6.212
			c0.635,1.811,1.499,3.335,2.591,4.569c1.093,1.238,2.368,2.183,3.823,2.825c1.456,0.646,3.017,0.967,4.681,0.967
			c0.958,0,1.832-0.045,2.623-0.14c0.79-0.093,1.524-0.254,2.2-0.484c0.676-0.229,1.322-0.524,1.936-0.889
			c0.614-0.364,1.233-0.817,1.855-1.358c0.25-0.209,0.521-0.38,0.813-0.516C77.755,34.278,78.056,34.209,78.369,34.209z"/>
		<path fill="#FFFFFF" d="M133.705,23.225c0,3.284-0.568,6.346-1.701,9.177c-1.135,2.828-2.732,5.289-4.791,7.379
			c-2.061,2.094-4.541,3.729-7.445,4.916c-2.904,1.187-6.124,1.781-9.659,1.781c-3.537,0-6.762-0.596-9.675-1.781
			c-2.915-1.188-5.406-2.825-7.475-4.916c-2.069-2.09-3.673-4.548-4.806-7.379c-1.132-2.831-1.701-5.89-1.701-9.177
			c0-3.288,0.566-6.346,1.701-9.178c1.135-2.828,2.737-5.284,4.806-7.365c2.069-2.08,4.562-3.716,7.475-4.898
			c2.913-1.187,6.138-1.778,9.675-1.778c3.538,0,6.756,0.598,9.659,1.793c2.902,1.197,5.382,2.836,7.445,4.916
			c2.061,2.082,3.655,4.536,4.791,7.365C133.136,16.908,133.705,19.957,133.705,23.225z M122.905,23.225
			c0-2.247-0.293-4.271-0.874-6.068c-0.583-1.801-1.421-3.324-2.513-4.573c-1.091-1.25-2.429-2.205-4.011-2.873
			c-1.582-0.665-3.382-0.999-5.399-0.999c-2.039,0-3.856,0.334-5.447,0.999c-1.591,0.668-2.933,1.623-4.026,2.873
			c-1.092,1.249-1.929,2.772-2.513,4.573c-0.583,1.799-0.874,3.821-0.874,6.068c0,2.268,0.291,4.302,0.874,6.102
			c0.581,1.801,1.419,3.324,2.513,4.57c1.093,1.25,2.435,2.2,4.026,2.856c1.591,0.654,3.408,0.982,5.447,0.982
			c2.017,0,3.817-0.328,5.399-0.982c1.581-0.656,2.917-1.606,4.011-2.856c1.091-1.246,1.929-2.771,2.513-4.57
			C122.612,27.526,122.905,25.492,122.905,23.225z"/>
		<path fill="#FFFFFF" d="M157.673,37.644c1.415,0,2.679-0.235,3.792-0.702c1.113-0.47,2.054-1.14,2.825-2.017
			c0.769-0.87,1.358-1.937,1.763-3.195c0.405-1.262,0.609-2.689,0.609-4.292V0.502h10.548v26.936c0,2.789-0.452,5.347-1.356,7.676
			c-0.905,2.331-2.201,4.341-3.886,6.024c-1.686,1.686-3.735,2.996-6.149,3.934c-2.414,0.937-5.128,1.403-8.145,1.403
			c-3.038,0-5.763-0.47-8.177-1.403c-2.414-0.938-4.463-2.248-6.147-3.934c-1.686-1.685-2.975-3.692-3.871-6.024
			c-0.895-2.329-1.341-4.89-1.341-7.676V0.502h10.547v26.902c0,1.602,0.202,3.032,0.609,4.292c0.407,1.259,0.992,2.329,1.763,3.214
			c0.768,0.885,1.709,1.562,2.825,2.028C154.994,37.408,156.257,37.644,157.673,37.644z"/>
		<path fill="#FFFFFF" d="M209.418,9.74c-0.312,0.5-0.639,0.874-0.983,1.122c-0.343,0.25-0.786,0.377-1.326,0.377
			c-0.479,0-0.993-0.151-1.544-0.455c-0.551-0.301-1.175-0.639-1.873-1.014c-0.697-0.374-1.492-0.712-2.387-1.015
			c-0.896-0.304-1.914-0.454-3.058-0.454c-1.977,0-3.449,0.423-4.416,1.265c-0.966,0.844-1.451,1.982-1.451,3.419
			c0,0.915,0.291,1.675,0.875,2.277c0.584,0.604,1.345,1.124,2.293,1.563c0.945,0.438,2.027,0.838,3.244,1.202
			c1.216,0.364,2.46,0.77,3.729,1.217c1.268,0.448,2.513,0.974,3.729,1.576c1.217,0.603,2.3,1.373,3.245,2.308
			c0.947,0.938,1.712,2.075,2.295,3.42c0.581,1.341,0.874,2.957,0.874,4.853c0,2.101-0.364,4.069-1.092,5.896
			c-0.728,1.832-1.785,3.43-3.169,4.792c-1.384,1.363-3.089,2.436-5.117,3.216c-2.028,0.778-4.334,1.171-6.914,1.171
			c-1.416,0-2.856-0.146-4.323-0.438c-1.466-0.294-2.887-0.703-4.261-1.233c-1.374-0.528-2.664-1.158-3.869-1.889
			c-1.208-0.729-2.258-1.54-3.152-2.436l3.12-4.93c0.228-0.375,0.551-0.675,0.968-0.905c0.416-0.229,0.864-0.344,1.341-0.344
			c0.625,0,1.255,0.199,1.888,0.592c0.635,0.396,1.352,0.834,2.153,1.312c0.801,0.479,1.721,0.916,2.763,1.311
			c1.042,0.394,2.267,0.592,3.684,0.592c1.914,0,3.401-0.421,4.463-1.265c1.061-0.844,1.591-2.18,1.591-4.009
			c0-1.062-0.291-1.928-0.874-2.59c-0.583-0.668-1.348-1.217-2.293-1.656c-0.947-0.438-2.024-0.821-3.229-1.153
			c-1.208-0.333-2.446-0.701-3.714-1.108s-2.508-0.907-3.713-1.499c-1.206-0.593-2.285-1.373-3.229-2.341
			c-0.945-0.967-1.712-2.173-2.293-3.62s-0.874-3.229-0.874-5.353c0-1.705,0.345-3.37,1.031-4.993s1.696-3.067,3.027-4.338
			c1.331-1.271,2.965-2.285,4.9-3.043c1.933-0.763,4.151-1.139,6.646-1.139c1.393,0,2.751,0.108,4.073,0.326
			c1.322,0.218,2.575,0.54,3.762,0.967c1.186,0.428,2.293,0.938,3.324,1.529c1.029,0.592,1.951,1.264,2.762,2.015L209.418,9.74z"/>
		<path fill="#FFFFFF" d="M250.928,0.503v8.363h-12.795v37.109h-10.549V8.866h-12.795V0.503H250.928L250.928,0.503z"/>
		<path fill="#FFFFFF" d="M266.845,45.976h-10.612V0.502h10.612V45.976z"/>
		<path fill="#FFFFFF" d="M305.828,34.209c0.248,0,0.498,0.046,0.748,0.142c0.25,0.093,0.49,0.254,0.717,0.482l4.182,4.401
			c-1.832,2.392-4.125,4.196-6.881,5.414c-2.755,1.22-6.018,1.829-9.783,1.829c-3.453,0-6.549-0.588-9.284-1.765
			c-2.736-1.176-5.057-2.799-6.96-4.871c-1.903-2.067-3.365-4.523-4.383-7.363c-1.021-2.84-1.531-5.925-1.531-9.254
			c0-3.393,0.584-6.508,1.749-9.349c1.164-2.84,2.792-5.29,4.884-7.351c2.091-2.062,4.593-3.66,7.506-4.807
			c2.913-1.144,6.127-1.716,9.643-1.716c1.706,0,3.311,0.151,4.821,0.452c1.507,0.303,2.917,0.717,4.228,1.248
			c1.312,0.53,2.521,1.166,3.622,1.903c1.104,0.74,2.082,1.558,2.936,2.453l-3.559,4.774c-0.23,0.29-0.498,0.559-0.813,0.794
			c-0.313,0.239-0.75,0.36-1.311,0.36c-0.374,0-0.729-0.085-1.062-0.25c-0.332-0.167-0.684-0.369-1.06-0.608
			c-0.376-0.237-0.785-0.499-1.233-0.777c-0.448-0.281-0.978-0.543-1.592-0.782c-0.613-0.236-1.33-0.441-2.152-0.606
			c-0.823-0.166-1.784-0.25-2.887-0.25c-1.916,0-3.662,0.338-5.245,1.018c-1.579,0.673-2.938,1.645-4.073,2.9
			c-1.134,1.261-2.02,2.784-2.652,4.573c-0.633,1.79-0.952,3.798-0.952,6.023c0,2.33,0.316,4.4,0.952,6.212
			c0.636,1.811,1.498,3.335,2.59,4.569c1.094,1.238,2.369,2.183,3.824,2.825c1.454,0.646,3.014,0.967,4.679,0.967
			c0.957,0,1.833-0.045,2.623-0.14c0.791-0.093,1.524-0.254,2.201-0.484c0.674-0.229,1.319-0.524,1.934-0.889
			c0.614-0.364,1.232-0.817,1.856-1.358c0.25-0.209,0.519-0.38,0.812-0.516C305.212,34.278,305.513,34.209,305.828,34.209z"/>
		<path fill="#FFFFFF" d="M341.623,9.74c-0.314,0.5-0.643,0.874-0.984,1.122c-0.342,0.25-0.785,0.377-1.326,0.377
			c-0.479,0-0.994-0.151-1.547-0.455c-0.549-0.301-1.176-0.639-1.871-1.014c-0.695-0.374-1.49-0.712-2.387-1.015
			c-0.893-0.304-1.914-0.454-3.059-0.454c-1.979,0-3.449,0.423-4.416,1.265c-0.967,0.844-1.451,1.982-1.451,3.419
			c0,0.915,0.291,1.675,0.871,2.277c0.584,0.604,1.348,1.124,2.293,1.563c0.947,0.438,2.029,0.838,3.248,1.202
			s2.461,0.77,3.729,1.217c1.27,0.448,2.514,0.974,3.729,1.576c1.217,0.603,2.297,1.373,3.246,2.308
			c0.945,0.938,1.713,2.075,2.295,3.42c0.582,1.341,0.871,2.957,0.871,4.853c0,2.101-0.363,4.069-1.092,5.896
			c-0.73,1.832-1.785,3.43-3.17,4.792c-1.385,1.363-3.09,2.436-5.117,3.216c-2.027,0.778-4.334,1.171-6.914,1.171
			c-1.414,0-2.854-0.146-4.322-0.438c-1.469-0.294-2.887-0.703-4.262-1.233c-1.373-0.528-2.662-1.158-3.869-1.889
			c-1.209-0.729-2.26-1.54-3.152-2.436l3.119-4.93c0.229-0.375,0.551-0.675,0.967-0.905c0.416-0.229,0.863-0.344,1.344-0.344
			c0.623,0,1.254,0.199,1.889,0.592c0.633,0.396,1.352,0.834,2.154,1.312c0.799,0.479,1.721,0.916,2.762,1.311
			c1.037,0.396,2.266,0.592,3.682,0.592c1.916,0,3.402-0.421,4.461-1.265c1.064-0.844,1.594-2.18,1.594-4.009
			c0-1.062-0.293-1.928-0.875-2.59c-0.584-0.668-1.346-1.217-2.293-1.656c-0.945-0.438-2.021-0.821-3.229-1.153
			c-1.209-0.333-2.447-0.701-3.715-1.108c-1.271-0.404-2.508-0.907-3.717-1.499c-1.207-0.593-2.283-1.373-3.229-2.341
			c-0.949-0.967-1.713-2.173-2.293-3.62c-0.582-1.447-0.875-3.229-0.875-5.353c0-1.705,0.342-3.37,1.031-4.993
			s1.695-3.067,3.027-4.338c1.33-1.271,2.965-2.285,4.896-3.043c1.938-0.763,4.154-1.139,6.65-1.139c1.393,0,2.75,0.108,4.07,0.326
			c1.322,0.221,2.576,0.54,3.764,0.967c1.186,0.428,2.291,0.938,3.322,1.529s1.951,1.264,2.764,2.015L341.623,9.74z"/>
		<path fill="#FFFFFF" d="M395.177,0.503v8.363h-12.795v37.109h-10.547V8.866h-12.795V0.503H395.177L395.177,0.503z"/>
		<path fill="#FFFFFF" d="M428.82,0.503v8.115h-18.664V19.23h14.295v7.804h-14.295v10.828h18.664v8.114h-29.277V0.503H428.82
			L428.82,0.503z"/>
		<path fill="#FFFFFF" d="M460.154,9.74c-0.313,0.5-0.643,0.874-0.984,1.122c-0.34,0.25-0.785,0.377-1.324,0.377
			c-0.48,0-0.996-0.151-1.547-0.455c-0.551-0.301-1.176-0.639-1.871-1.014c-0.695-0.374-1.49-0.712-2.387-1.015
			c-0.895-0.304-1.914-0.454-3.061-0.454c-1.977,0-3.447,0.423-4.414,1.265c-0.969,0.844-1.453,1.982-1.453,3.419
			c0,0.915,0.291,1.675,0.873,2.277c0.584,0.604,1.348,1.124,2.293,1.563c0.947,0.438,2.027,0.838,3.246,1.202
			s2.461,0.77,3.729,1.217c1.268,0.448,2.512,0.974,3.729,1.576s2.297,1.373,3.246,2.308c0.945,0.938,1.713,2.075,2.293,3.42
			c0.584,1.341,0.871,2.957,0.871,4.853c0,2.101-0.363,4.069-1.092,5.896c-0.729,1.832-1.783,3.43-3.168,4.792
			c-1.385,1.363-3.09,2.436-5.117,3.216c-2.027,0.778-4.334,1.171-6.914,1.171c-1.414,0-2.854-0.146-4.322-0.438
			c-1.469-0.294-2.887-0.703-4.262-1.233c-1.373-0.528-2.662-1.158-3.869-1.889c-1.209-0.729-2.26-1.54-3.152-2.436l3.119-4.93
			c0.229-0.375,0.551-0.675,0.967-0.905c0.416-0.229,0.863-0.344,1.344-0.344c0.625,0,1.252,0.199,1.887,0.592
			c0.635,0.396,1.355,0.834,2.154,1.312c0.801,0.479,1.723,0.916,2.762,1.311c1.039,0.396,2.27,0.592,3.684,0.592
			c1.916,0,3.4-0.421,4.463-1.265s1.59-2.18,1.59-4.009c0-1.062-0.291-1.928-0.873-2.59c-0.582-0.668-1.346-1.217-2.293-1.656
			c-0.945-0.438-2.021-0.821-3.229-1.153c-1.209-0.333-2.445-0.701-3.715-1.108c-1.271-0.404-2.508-0.907-3.715-1.499
			c-1.209-0.593-2.285-1.373-3.23-2.341c-0.945-0.967-1.711-2.173-2.291-3.62c-0.582-1.447-0.875-3.229-0.875-5.353
			c0-1.705,0.342-3.37,1.031-4.993c0.688-1.623,1.693-3.067,3.025-4.338c1.332-1.271,2.965-2.285,4.898-3.043
			c1.936-0.763,4.152-1.139,6.646-1.139c1.395,0,2.752,0.108,4.074,0.326c1.322,0.221,2.576,0.54,3.762,0.967
			c1.188,0.428,2.293,0.938,3.324,1.529s1.949,1.264,2.762,2.015L460.154,9.74z"/>
		<path fill="#FFFFFF" d="M501.662,0.503v8.363h-12.795v37.109H478.32V8.866h-12.795V0.503H501.662L501.662,0.503z"/>
		<path fill="#FFFFFF" d="M517.582,45.976H506.97V0.502h10.611V45.976z"/>
		<path fill="#FFFFFF" d="M532.716,0.565c0.314,0.042,0.592,0.119,0.844,0.231c0.248,0.116,0.49,0.277,0.719,0.483
			c0.229,0.209,0.488,0.492,0.777,0.845l21.598,27.312c-0.084-0.875-0.145-1.724-0.188-2.545c-0.043-0.823-0.063-1.597-0.063-2.325
			V0.503h9.301v45.474h-5.494c-0.813,0-1.496-0.125-2.059-0.375c-0.564-0.25-1.105-0.707-1.623-1.373l-21.441-27.093
			c0.063,0.79,0.113,1.568,0.154,2.326s0.063,1.473,0.063,2.138v24.375h-9.297V0.5h5.557C532.019,0.503,532.404,0.523,532.716,0.565
			z"/>
		<path fill="#FFFFFF" d="M594.605,38.36c1.457,0,2.746-0.125,3.869-0.374c1.125-0.25,2.188-0.584,3.186-0.999v-6.898h-4.494
			c-0.666,0-1.188-0.178-1.563-0.529c-0.375-0.354-0.563-0.801-0.563-1.342v-5.805h16.168v19.193
			c-1.164,0.853-2.377,1.587-3.635,2.197c-1.26,0.614-2.602,1.12-4.027,1.516c-1.424,0.394-2.941,0.687-4.555,0.874
			c-1.611,0.187-3.346,0.281-5.197,0.281c-3.328,0-6.41-0.589-9.236-1.765c-2.828-1.175-5.281-2.798-7.35-4.869
			c-2.07-2.068-3.695-4.524-4.871-7.364c-1.176-2.841-1.764-5.927-1.764-9.255c0-3.391,0.563-6.507,1.686-9.349
			c1.123-2.84,2.732-5.289,4.822-7.351c2.092-2.061,4.619-3.66,7.582-4.806C587.63,0.573,590.941,0,594.603,0
			c1.896,0,3.674,0.155,5.338,0.468c1.662,0.314,3.195,0.74,4.604,1.28c1.406,0.541,2.689,1.188,3.854,1.935
			c1.166,0.752,2.205,1.563,3.123,2.437l-3.061,4.649c-0.293,0.438-0.639,0.779-1.045,1.03c-0.402,0.252-0.85,0.375-1.324,0.375
			c-0.625,0-1.271-0.208-1.934-0.625c-0.834-0.495-1.619-0.932-2.359-1.296c-0.74-0.362-1.492-0.661-2.262-0.889
			c-0.771-0.229-1.582-0.396-2.436-0.5s-1.811-0.155-2.873-0.155c-1.975,0-3.754,0.35-5.338,1.047
			c-1.58,0.695-2.926,1.681-4.039,2.947c-1.115,1.271-1.973,2.795-2.576,4.573s-0.904,3.762-0.904,5.946
			c0,2.413,0.334,4.556,0.998,6.429c0.668,1.871,1.586,3.453,2.762,4.744c1.176,1.289,2.568,2.272,4.182,2.947
			C590.927,38.022,592.693,38.36,594.605,38.36z"/>
	</g>
</g>
</svg>
