<svg xmlns="http://www.w3.org/2000/svg" xmlns:xlink="http://www.w3.org/1999/xlink" version="1.1" x="0" y="0" viewBox="0 0 364.01 142.76" xml:space="preserve" enable-background="new 0 0 364.005 142.762">
  <g id="Layer_2">
    <path d="M361.25 36.83c0.69 0.69 1.03 1.53 1.03 2.51 0 0.99-0.35 1.83-1.03 2.53 -0.69 0.7-1.53 1.05-2.51 1.05 -0.99 0-1.83-0.35-2.52-1.05 -0.68-0.7-1.03-1.54-1.03-2.53 0-0.98 0.35-1.82 1.03-2.51 0.69-0.7 1.53-1.05 2.51-1.05C359.72 35.78 360.56 36.13 361.25 36.83zM361.66 36.43c-0.8-0.8-1.78-1.2-2.92-1.2 -1.14 0-2.11 0.4-2.91 1.2 -0.81 0.81-1.21 1.78-1.21 2.91 0 1.15 0.4 2.13 1.2 2.93 0.8 0.81 1.78 1.22 2.92 1.22 1.14 0 2.12-0.41 2.92-1.22 0.81-0.81 1.21-1.79 1.21-2.93C362.87 38.2 362.47 37.23 361.66 36.43zM359.35 39.15c-0.17 0.07-0.42 0.1-0.76 0.1h-0.72V37.61h0.68c0.44 0 0.76 0.06 0.96 0.17 0.2 0.11 0.3 0.33 0.3 0.66C359.82 38.79 359.66 39.03 359.35 39.15zM357.07 41.6h0.8v-1.79h0.63c0.42 0 0.72 0.05 0.89 0.15 0.29 0.17 0.43 0.52 0.43 1.04v0.36l0.02 0.15c0 0.02 0.01 0.04 0.01 0.05 0 0.02 0.01 0.03 0.01 0.05h0.75l-0.03-0.06c-0.02-0.04-0.03-0.11-0.04-0.24 -0.01-0.12-0.01-0.23-0.01-0.34v-0.33c0-0.23-0.08-0.46-0.25-0.7 -0.17-0.24-0.43-0.39-0.78-0.44 0.28-0.04 0.5-0.12 0.66-0.22 0.3-0.19 0.45-0.49 0.45-0.89 0-0.57-0.23-0.95-0.7-1.15 -0.26-0.11-0.68-0.16-1.24-0.16h-1.59V41.6z" fill="#FFF"/>
    <path d="M163.02 1.2c1 1.9 2 4.1 1.2 6.4 -5.3 9.8-17.2 10.2-27.6 10.8l-13.4-0.1 -50.3-1.9c-11.1-0.7-21.6 0.8-30.2 6 -2.4 1.9-4.9 4.1-4.9 7.2 0.9 2.3 3.6 2.5 5.9 2.6 5.6 0.2 10.3-1.7 15.1-3.3 1.5-0.3 3.2-0.2 4.5 0.6 1.4 0.9 1.6 2.5 1.7 4 0.2 1.5-0.4 2.6-1.3 3.6 -6.6 5-15.3 5.5-23.9 5.1 -6.4-0.2-11.4-3.8-13.5-9.5 -1.8-8.4 4.3-14.2 9.7-18.5 21.7-12.9 51.3-6.8 76.9-6.3 11.9 0.2 24.3 0.6 35.6-1.4 4.3-0.8 7.7-3.5 10.8-6.2C160.72-0.5 162.12 0.5 163.02 1.2z" fill="#FFF"/>
    <path d="M93.62 28.1l-0.1 2.1 -11.7 17 -20.3 28.8c-8.8 11.4-17.8 27-33.8 28.1 -9.7 1.4-19.1-2.5-24.2-9.5 -1.6-2.9-4.3-6.2-3.3-10.1 1.3-1.6 3.6-2.4 5.8-2.5 4.6 0.5 4.7 6.4 8 8.3 4 3.8 11.2 4.9 16.5 2.5 5.5-2.4 9.2-6.3 12.8-10.6l32.9-46.1c3.5-3.7 4.9-10.4 11.2-10.8C89.72 25.7 92.62 25.7 93.62 28.1z" fill="#FFF"/>
    <circle cx="116.32" cy="42.95" r="6.25" fill="#FFF"/>
    <path d="M116.32 42.95" fill="#FFF"/>
    <circle cx="267.69" cy="35.95" r="6.25" fill="#FFF"/>
    <path d="M267.69 35.95" fill="#FFF"/>
    <path d="M363.42 49.1c-0.5-1.1-1.8-1.3-2.9-1.5l-18.7-0.1 -0.4-0.4c0.8-1.6 1.6-3.3 2-5 -0.3-3.3-2.9-5.5-5.8-6.5 -1.3-0.2-2.7 0.2-3.5 1.1 -1.8 3.5-3.2 7.1-5.3 10.6 -4.1 0.5-9.7-1.4-12.1 2.3 -1 1.8-1.3 4.3-0.5 6.2 1.2 2.8 4.8 1.5 7.2 2.1 -0.4 1.1-0.9 2.4-1.7 3.6 -3.9 6.1-7.6 14.1-15.6 15.8 0.8-9.8-3.3-18.2-7.4-26.3 -1.4-2.6-1.2-6-3.6-8 -1.4-0.8-3.5-0.8-5.1-0.4 -1.3 0.5-1.9 1.5-2.4 2.7 -2.9 11.5-8.9 21.9-16.5 30.3 -2.4 2.7-6.4 5.2-10.4 3.8 -2-0.9-2.5-3.4-2.3-5.6 1.8-7.2 4.8-14 7.5-20.9 0.5-1.4 1.1-3 0.5-4.5 -1.1-1.7-3.2-2.1-5.3-2 -2.4 0-4.4 1.1-5.6 3 -3.1 8.1-6 16.7-9.4 24.5 -2.3 3.2-6.2 5.1-9.9 6.4 -3.3 0.7-7 0.2-9.2-2 3.2-2.4 5.9-4.9 8.6-8.1 4.5-5.4 6.6-13.1 3.8-19.9 -1.6-3.3-5.1-5.8-8.9-5.9 -8.1-0.1-13.8 5.6-17.3 11.6 -2.8 5.7-3.8 13-2.6 19.6 -2.2 1.7-4.1 3.4-6.7 4.4 -4.9 2.1-11.5 1.2-15.8-1.4 -2.1-1.4-3.9-3.1-4.5-5.6 9.6-7.5 17.2-15.4 23.7-25.9 4.4-8.3 9.7-19.6 3.4-28.6 -1.4-1.8-3.4-3-5.6-3.6 -6-1.2-11.4 1.2-15.4 4.8 -12.8 12.4-21.4 29.4-19.2 49.1 -6.7 5-13.7 9.9-22.2 12.7 -4.2 0.8-9.1 0.4-11.9-3.2 -1.3-2.2-0.6-5 0.4-7.2l11.4-19c4.3-0.5 9.3 0.3 13.4-0.8 2.5-1.2 4.2-4.2 4-7.2 -0.2-0.8-0.7-1.5-1.5-1.8 -3.2-0.2-6.9 0.1-10.2-0.2 0.6-1.8 2.3-3.3 2.1-5.4 -0.7-2.1-3-2.8-5-2.9 -6.4-1.4-6.3 5.7-9.3 8.5 -3.1 0.3-6.6-0.2-9.4 0.8 -2.4 1.6-3.6 3.8-3.5 6.8 0.2 3.4 4.4 1.7 6.7 2.4l-0.1 0.4c-8.1 10.8-11.9 25.2-27.2 28.5 -2.2 0.5-4.7 0.2-6-1.8 -0.6-1.4-0.7-3.4-0.3-4.9 2.2-6.8 8-12.1 10.4-18.8v-0.9c-0.3-1.8-2.2-2.7-3.7-3.1 -2.2-0.6-4.6-0.3-6.1 1.5 -3.1 4.2-5.9 9-9 13.1 -5.3 7.7-12.9 12.1-21.1 15.5 -1.9 1.1-4.5 0.7-5.9 2.7 -0.3 0.7-0.6 1.7-0.2 2.5 1.9 2.1 4.1 5.6 7.8 5 6.7-1.6 11.7-5.8 17.5-8.9 0.9 2.4 2.6 5.4 4.9 6.8 8 3.6 18.9 2.1 25.7-2.9 1.7-1 3-2.6 4.7-3.4 0.8 1.6 2.3 3.1 3.8 4.5 7.1 6.5 19.2 4.3 27.2 0.9 6-2.3 11.2-6.4 16.5-9.4 0.7 1 1.5 2 2.2 3.1 5.6 7.6 16.1 10.9 26 8.2 5-1.2 9.1-4 13.7-6.3 2.7 2.5 6.1 4.4 9.7 5.6 8.6 3.1 18.3 0.3 24.5-5.2 2 1.9 4.1 3.7 6.7 4.9 7.7 3.4 14.9-1.5 20.6-5.8 2.9 2.7 5.3 5.7 9.2 6.9 4.2 1.4 9.9 1.2 13-2.2 6.5 0.4 12.1-1.6 16.9-4.9 2.7 3.6 6.2 6.1 10.4 7.3 7.1 2 14.8 0.4 20.2-4.2 2.4-1.8 3.8-4.6 2.9-7.7 -0.2-1.2-1.3-2.2-2.3-2.8 -1.1-0.3-2.4-0.4-3.3 0.1 -2.9 2.4-6.3 4.6-10.3 4.8 -2.7 0.4-5.5-0.3-6.9-2.5 -1-1.7-0.8-4.1-0.2-5.9 2.2-5.3 5.2-10 8.2-14.9 8.4-0.1 16.2-0.2 24.5-0.6 1.6-0.4 3-1.8 3.5-3.3C364.02 52.6 364.32 50.6 363.42 49.1zM192.62 32c2.3-2.8 4.9-5.5 8.7-6.3 0.9-0.1 1.4 0.7 1.7 1.3 0.8 5.6-2.5 9.9-4.8 14.1 -4.6 6.8-10.1 14-16.8 19.9C181.32 49.7 186.42 40.3 192.62 32zM221.62 71c-2.2-5.3 0.7-10.7 3.7-14.7 1.1-1 4-3.3 4.5-0.5C230.62 62.4 226.32 67.8 221.62 71zM294.42 78.2c-0.4 0.8-1.2 1.5-2 1.8 -3.1 0.9-5.4-1.8-7-3.6l0.1-0.7 5.9-11.5C293.82 68 295.92 73.2 294.42 78.2z" fill="#FFF"/>
  </g>
  <g id="Layer_1"/>
  <g id="Titleist_Logos">
    <path d="M101.05 142.53h-3.8c-0.42 0-0.77-0.1-1.05-0.3s-0.47-0.45-0.57-0.76l-1.25-3.68h-8.03l-1.25 3.68c-0.1 0.27-0.28 0.52-0.56 0.73s-0.62 0.33-1.03 0.33h-3.83l8.18-21.12h5.02L101.05 142.53zM87.48 134.46h5.77l-1.94-5.78c-0.12-0.37-0.27-0.8-0.44-1.3 -0.17-0.5-0.34-1.04-0.5-1.62 -0.15 0.59-0.31 1.14-0.48 1.64 -0.16 0.5-0.32 0.94-0.46 1.31L87.48 134.46z" fill="#FFF"/>
    <path d="M116.09 137.06c0.12 0 0.23 0.02 0.35 0.07 0.12 0.04 0.23 0.12 0.33 0.23l1.94 2.04c-0.85 1.11-1.92 1.95-3.2 2.52 -1.28 0.56-2.79 0.85-4.54 0.85 -1.6 0-3.04-0.27-4.31-0.82 -1.27-0.55-2.35-1.3-3.23-2.26 -0.88-0.96-1.56-2.1-2.04-3.42 -0.47-1.32-0.71-2.75-0.71-4.3 0-1.57 0.27-3.02 0.81-4.34 0.54-1.32 1.3-2.46 2.27-3.41 0.97-0.96 2.13-1.7 3.49-2.23 1.35-0.53 2.85-0.8 4.48-0.8 0.79 0 1.54 0.07 2.24 0.21 0.7 0.14 1.36 0.33 1.96 0.58 0.61 0.25 1.17 0.54 1.68 0.88 0.51 0.34 0.97 0.72 1.36 1.14l-1.65 2.22c-0.11 0.14-0.23 0.26-0.38 0.37 -0.14 0.11-0.35 0.17-0.61 0.17 -0.17 0-0.34-0.04-0.49-0.12 -0.15-0.08-0.32-0.17-0.49-0.28s-0.36-0.23-0.57-0.36c-0.21-0.13-0.45-0.25-0.74-0.36 -0.28-0.11-0.62-0.2-1-0.28 -0.38-0.08-0.83-0.12-1.34-0.12 -0.89 0-1.7 0.16-2.44 0.47 -0.73 0.31-1.36 0.76-1.89 1.35 -0.53 0.59-0.94 1.29-1.23 2.12s-0.44 1.76-0.44 2.8c0 1.08 0.15 2.04 0.44 2.89s0.7 1.55 1.2 2.12c0.51 0.57 1.1 1.01 1.78 1.31s1.4 0.45 2.17 0.45c0.45 0 0.85-0.02 1.22-0.06 0.37-0.04 0.71-0.12 1.02-0.22s0.61-0.24 0.9-0.41c0.28-0.17 0.57-0.38 0.86-0.63 0.12-0.1 0.24-0.18 0.38-0.24C115.8 137.1 115.94 137.06 116.09 137.06z" fill="#FFF"/>
    <path d="M141.79 131.96c0 1.53-0.26 2.95-0.79 4.26 -0.53 1.31-1.27 2.46-2.22 3.43 -0.96 0.97-2.11 1.73-3.46 2.28s-2.84 0.83-4.49 0.83c-1.64 0-3.14-0.28-4.49-0.83 -1.35-0.55-2.51-1.31-3.47-2.28 -0.96-0.97-1.71-2.11-2.23-3.43s-0.79-2.73-0.79-4.26c0-1.53 0.26-2.95 0.79-4.26 0.53-1.31 1.27-2.45 2.23-3.42 0.96-0.97 2.12-1.72 3.47-2.27 1.35-0.55 2.85-0.83 4.49-0.83 1.64 0 3.14 0.28 4.49 0.83s2.5 1.32 3.46 2.28c0.96 0.97 1.7 2.11 2.23 3.42C141.52 129.03 141.79 130.44 141.79 131.96zM136.77 131.96c0-1.04-0.14-1.98-0.41-2.82 -0.27-0.84-0.66-1.54-1.17-2.12s-1.13-1.02-1.86-1.33c-0.73-0.31-1.57-0.46-2.51-0.46 -0.95 0-1.79 0.16-2.53 0.46 -0.74 0.31-1.36 0.75-1.87 1.33 -0.51 0.58-0.9 1.29-1.17 2.12 -0.27 0.84-0.41 1.78-0.41 2.82 0 1.05 0.14 2 0.41 2.83 0.27 0.84 0.66 1.54 1.17 2.12 0.51 0.58 1.13 1.02 1.87 1.33 0.74 0.3 1.58 0.46 2.53 0.46 0.94 0 1.77-0.15 2.51-0.46 0.73-0.3 1.36-0.75 1.86-1.33 0.51-0.58 0.9-1.29 1.17-2.12C136.64 133.96 136.77 133.01 136.77 131.96z" fill="#FFF"/>
    <path d="M152.92 138.66c0.66 0 1.24-0.11 1.76-0.33 0.52-0.22 0.95-0.53 1.31-0.94 0.36-0.4 0.63-0.9 0.82-1.48s0.28-1.25 0.28-1.99v-12.51h4.9v12.51c0 1.3-0.21 2.48-0.63 3.57 -0.42 1.08-1.02 2.02-1.8 2.8 -0.78 0.78-1.73 1.39-2.86 1.83 -1.12 0.44-2.38 0.65-3.78 0.65 -1.41 0-2.68-0.22-3.8-0.65 -1.12-0.44-2.07-1.04-2.85-1.83 -0.78-0.78-1.38-1.71-1.8-2.8 -0.42-1.08-0.62-2.27-0.62-3.56v-12.51h4.9v12.5c0 0.74 0.09 1.41 0.28 1.99s0.46 1.08 0.82 1.49c0.36 0.41 0.79 0.73 1.31 0.94C151.68 138.55 152.26 138.66 152.92 138.66z" fill="#FFF"/>
    <path d="M176.95 125.7c-0.14 0.23-0.3 0.41-0.46 0.52 -0.16 0.12-0.36 0.18-0.62 0.18 -0.22 0-0.46-0.07-0.72-0.21 -0.26-0.14-0.55-0.3-0.87-0.47s-0.69-0.33-1.11-0.47c-0.42-0.14-0.89-0.21-1.42-0.21 -0.92 0-1.6 0.2-2.05 0.59 -0.45 0.39-0.67 0.92-0.67 1.59 0 0.43 0.14 0.78 0.41 1.06 0.27 0.28 0.63 0.52 1.07 0.73 0.44 0.2 0.94 0.39 1.51 0.56 0.56 0.17 1.14 0.36 1.73 0.56s1.17 0.45 1.73 0.73 1.07 0.64 1.51 1.07c0.44 0.44 0.8 0.96 1.07 1.59 0.27 0.62 0.41 1.37 0.41 2.25 0 0.98-0.17 1.89-0.51 2.74 -0.34 0.85-0.83 1.59-1.47 2.23s-1.43 1.13-2.38 1.49c-0.94 0.36-2.01 0.54-3.21 0.54 -0.66 0-1.33-0.07-2.01-0.2 -0.68-0.14-1.34-0.33-1.98-0.57 -0.64-0.25-1.24-0.54-1.8-0.88 -0.56-0.34-1.05-0.71-1.46-1.13l1.45-2.29c0.11-0.17 0.26-0.31 0.45-0.42 0.19-0.11 0.4-0.16 0.62-0.16 0.29 0 0.58 0.09 0.88 0.28 0.3 0.18 0.63 0.39 1 0.61s0.8 0.43 1.28 0.61 1.05 0.28 1.71 0.28c0.89 0 1.58-0.19 2.07-0.59s0.74-1.01 0.74-1.86c0-0.49-0.13-0.89-0.41-1.2 -0.27-0.31-0.63-0.56-1.06-0.77 -0.44-0.2-0.94-0.38-1.5-0.54 -0.56-0.15-1.14-0.33-1.72-0.51s-1.16-0.42-1.72-0.7 -1.06-0.64-1.5-1.09c-0.44-0.45-0.79-1.01-1.06-1.68s-0.41-1.5-0.41-2.49c0-0.79 0.16-1.56 0.48-2.32s0.79-1.42 1.41-2.01c0.62-0.59 1.38-1.06 2.28-1.41 0.9-0.35 1.93-0.53 3.09-0.53 0.65 0 1.28 0.05 1.89 0.15s1.2 0.25 1.75 0.45 1.07 0.44 1.54 0.71c0.48 0.28 0.91 0.59 1.28 0.94L176.95 125.7z" fill="#FFF"/>
    <path d="M196.23 121.41v3.89h-5.94v17.24h-4.9v-17.24h-5.94v-3.88H196.23z" fill="#FFF"/>
    <path d="M203.63 142.53h-4.93v-21.12h4.93V142.53z" fill="#FFF"/>
    <path d="M221.73 137.06c0.12 0 0.23 0.02 0.35 0.07 0.12 0.04 0.23 0.12 0.33 0.23l1.94 2.04c-0.85 1.11-1.92 1.95-3.2 2.52s-2.79 0.85-4.54 0.85c-1.6 0-3.04-0.27-4.31-0.82 -1.27-0.55-2.35-1.3-3.23-2.26 -0.88-0.96-1.56-2.1-2.04-3.42 -0.47-1.32-0.71-2.75-0.71-4.3 0-1.57 0.27-3.02 0.81-4.34 0.54-1.32 1.3-2.46 2.27-3.41 0.97-0.96 2.13-1.7 3.49-2.23 1.35-0.53 2.85-0.8 4.48-0.8 0.79 0 1.54 0.07 2.24 0.21 0.7 0.14 1.36 0.33 1.96 0.58 0.61 0.25 1.17 0.54 1.68 0.88 0.51 0.34 0.97 0.72 1.36 1.14l-1.65 2.22c-0.11 0.14-0.23 0.26-0.38 0.37 -0.14 0.11-0.35 0.17-0.61 0.17 -0.17 0-0.34-0.04-0.49-0.12s-0.32-0.17-0.49-0.28c-0.17-0.11-0.36-0.23-0.57-0.36 -0.21-0.13-0.45-0.25-0.74-0.36 -0.28-0.11-0.62-0.2-1-0.28s-0.83-0.12-1.34-0.12c-0.89 0-1.7 0.16-2.44 0.47 -0.73 0.31-1.36 0.76-1.89 1.35 -0.53 0.59-0.94 1.29-1.23 2.12s-0.44 1.76-0.44 2.8c0 1.08 0.15 2.04 0.44 2.89s0.7 1.55 1.2 2.12c0.51 0.57 1.1 1.01 1.78 1.31 0.68 0.3 1.4 0.45 2.17 0.45 0.44 0 0.85-0.02 1.22-0.06 0.37-0.04 0.71-0.12 1.02-0.22 0.31-0.11 0.61-0.24 0.9-0.41s0.57-0.38 0.86-0.63c0.12-0.1 0.24-0.18 0.38-0.24C221.45 137.1 221.59 137.06 221.73 137.06z" fill="#FFF"/>
    <path d="M238.36 125.7c-0.15 0.23-0.3 0.41-0.46 0.52 -0.16 0.12-0.36 0.18-0.62 0.18 -0.22 0-0.46-0.07-0.72-0.21 -0.26-0.14-0.55-0.3-0.87-0.47 -0.32-0.17-0.69-0.33-1.11-0.47 -0.41-0.14-0.89-0.21-1.42-0.21 -0.92 0-1.6 0.2-2.05 0.59 -0.45 0.39-0.67 0.92-0.67 1.59 0 0.43 0.14 0.78 0.41 1.06 0.27 0.28 0.63 0.52 1.07 0.73 0.44 0.2 0.94 0.39 1.51 0.56s1.14 0.36 1.73 0.56 1.17 0.45 1.73 0.73 1.07 0.64 1.51 1.07c0.44 0.44 0.8 0.96 1.07 1.59 0.27 0.62 0.41 1.37 0.41 2.25 0 0.98-0.17 1.89-0.51 2.74 -0.34 0.85-0.83 1.59-1.47 2.23s-1.43 1.13-2.38 1.49 -2.01 0.54-3.21 0.54c-0.66 0-1.33-0.07-2.01-0.2 -0.68-0.14-1.34-0.33-1.98-0.57 -0.64-0.25-1.24-0.54-1.8-0.88 -0.56-0.34-1.05-0.71-1.46-1.13l1.45-2.29c0.11-0.17 0.26-0.31 0.45-0.42s0.4-0.16 0.62-0.16c0.29 0 0.58 0.09 0.88 0.28 0.29 0.18 0.63 0.39 1 0.61s0.8 0.43 1.28 0.61c0.48 0.18 1.05 0.28 1.71 0.28 0.89 0 1.58-0.19 2.07-0.59s0.74-1.01 0.74-1.86c0-0.49-0.14-0.89-0.41-1.2 -0.27-0.31-0.62-0.56-1.06-0.77 -0.44-0.2-0.94-0.38-1.5-0.54 -0.56-0.15-1.14-0.33-1.72-0.51 -0.59-0.19-1.16-0.42-1.73-0.7s-1.06-0.64-1.5-1.09c-0.44-0.45-0.79-1.01-1.06-1.68s-0.41-1.5-0.41-2.49c0-0.79 0.16-1.56 0.48-2.32s0.79-1.42 1.41-2.01c0.62-0.59 1.38-1.06 2.28-1.41 0.9-0.35 1.93-0.53 3.09-0.53 0.65 0 1.28 0.05 1.89 0.15 0.61 0.1 1.2 0.25 1.75 0.45s1.07 0.44 1.54 0.71 0.91 0.59 1.28 0.94L238.36 125.7z" fill="#FFF"/>
    <path d="M263.23 121.41v3.89h-5.94v17.24h-4.9v-17.24h-5.94v-3.88H263.23z" fill="#FFF"/>
    <path d="M278.86 121.41v3.77h-8.67v4.93h6.64v3.62h-6.64v5.03h8.67v3.77h-13.6v-21.12H278.86z" fill="#FFF"/>
    <path d="M293.41 125.7c-0.15 0.23-0.3 0.41-0.46 0.52 -0.16 0.12-0.36 0.18-0.62 0.18 -0.22 0-0.46-0.07-0.72-0.21 -0.26-0.14-0.55-0.3-0.87-0.47 -0.32-0.17-0.69-0.33-1.11-0.47 -0.41-0.14-0.89-0.21-1.42-0.21 -0.92 0-1.6 0.2-2.05 0.59 -0.45 0.39-0.67 0.92-0.67 1.59 0 0.43 0.14 0.78 0.41 1.06 0.27 0.28 0.63 0.52 1.07 0.73 0.44 0.2 0.94 0.39 1.51 0.56s1.14 0.36 1.73 0.56 1.17 0.45 1.73 0.73 1.07 0.64 1.51 1.07c0.44 0.44 0.8 0.96 1.07 1.59 0.27 0.62 0.41 1.37 0.41 2.25 0 0.98-0.17 1.89-0.51 2.74 -0.34 0.85-0.83 1.59-1.47 2.23s-1.43 1.13-2.38 1.49 -2.01 0.54-3.21 0.54c-0.66 0-1.33-0.07-2.01-0.2 -0.68-0.14-1.34-0.33-1.98-0.57 -0.64-0.25-1.24-0.54-1.8-0.88 -0.56-0.34-1.05-0.71-1.46-1.13l1.45-2.29c0.11-0.17 0.26-0.31 0.45-0.42s0.4-0.16 0.62-0.16c0.29 0 0.58 0.09 0.88 0.28 0.29 0.18 0.63 0.39 1 0.61s0.8 0.43 1.28 0.61c0.48 0.18 1.05 0.28 1.71 0.28 0.89 0 1.58-0.19 2.07-0.59s0.74-1.01 0.74-1.86c0-0.49-0.14-0.89-0.41-1.2 -0.27-0.31-0.62-0.56-1.06-0.77 -0.44-0.2-0.94-0.38-1.5-0.54 -0.56-0.15-1.14-0.33-1.72-0.51 -0.59-0.19-1.16-0.42-1.73-0.7s-1.06-0.64-1.5-1.09c-0.44-0.45-0.79-1.01-1.06-1.68s-0.41-1.5-0.41-2.49c0-0.79 0.16-1.56 0.48-2.32s0.79-1.42 1.41-2.01c0.62-0.59 1.38-1.06 2.28-1.41 0.9-0.35 1.93-0.53 3.09-0.53 0.65 0 1.28 0.05 1.89 0.15 0.61 0.1 1.2 0.25 1.75 0.45s1.07 0.44 1.54 0.71 0.91 0.59 1.28 0.94L293.41 125.7z" fill="#FFF"/>
    <path d="M312.69 121.41v3.89h-5.94v17.24h-4.9v-17.24h-5.94v-3.88H312.69z" fill="#FFF"/>
    <path d="M320.09 142.53h-4.93v-21.12h4.93V142.53z" fill="#FFF"/>
    <path d="M327.12 121.44c0.14 0.02 0.28 0.06 0.39 0.11 0.12 0.05 0.23 0.13 0.33 0.23 0.11 0.1 0.23 0.23 0.36 0.39l10.03 12.69c-0.04-0.41-0.07-0.8-0.09-1.18s-0.03-0.74-0.03-1.08v-11.18h4.32v21.12h-2.55c-0.38 0-0.69-0.06-0.96-0.17 -0.26-0.12-0.51-0.33-0.75-0.64l-9.96-12.58c0.03 0.37 0.05 0.73 0.07 1.08s0.03 0.68 0.03 0.99v11.32H324v-21.12h2.58C326.79 121.41 326.97 121.42 327.12 121.44z" fill="#FFF"/>
    <path d="M355.86 138.99c0.68 0 1.28-0.06 1.8-0.17s1.01-0.27 1.48-0.46v-3.2h-2.09c-0.31 0-0.55-0.08-0.72-0.25s-0.26-0.37-0.26-0.62v-2.7h7.51v8.91c-0.54 0.4-1.1 0.74-1.69 1.02 -0.58 0.28-1.21 0.52-1.87 0.7s-1.37 0.32-2.12 0.41 -1.55 0.13-2.41 0.13c-1.55 0-2.98-0.27-4.29-0.82 -1.31-0.55-2.45-1.3-3.41-2.26 -0.96-0.96-1.72-2.1-2.26-3.42s-0.82-2.75-0.82-4.3c0-1.57 0.26-3.02 0.78-4.34 0.52-1.32 1.27-2.46 2.24-3.41 0.97-0.96 2.15-1.7 3.52-2.23 1.38-0.53 2.92-0.8 4.62-0.8 0.88 0 1.71 0.07 2.48 0.22 0.77 0.15 1.49 0.34 2.14 0.6s1.25 0.55 1.79 0.9c0.54 0.35 1.02 0.73 1.45 1.13l-1.42 2.16c-0.14 0.2-0.3 0.36-0.48 0.48s-0.39 0.17-0.62 0.17c-0.29 0-0.59-0.1-0.9-0.29 -0.39-0.23-0.75-0.43-1.09-0.6 -0.34-0.17-0.69-0.31-1.05-0.41 -0.36-0.11-0.73-0.18-1.13-0.23 -0.4-0.05-0.84-0.07-1.33-0.07 -0.92 0-1.74 0.16-2.48 0.49 -0.73 0.32-1.36 0.78-1.88 1.37 -0.52 0.59-0.92 1.3-1.2 2.12s-0.42 1.75-0.42 2.76c0 1.12 0.16 2.12 0.46 2.99 0.31 0.87 0.74 1.6 1.28 2.2s1.19 1.06 1.94 1.37C354.15 138.84 354.97 138.99 355.86 138.99z" fill="#FFF"/>
  </g>
</svg>
