<?xml version="1.0" encoding="utf-8"?>
<!-- Generator: Adobe Illustrator 14.0.0, SVG Export Plug-In . SVG Version: 6.00 Build 43363)  -->
<!DOCTYPE svg PUBLIC "-//W3C//DTD SVG 1.1//EN" "http://www.w3.org/Graphics/SVG/1.1/DTD/svg11.dtd">
<svg version="1.1" id="Layer_1" xmlns="http://www.w3.org/2000/svg" xmlns:xlink="http://www.w3.org/1999/xlink" x="0px" y="0px"
	 width="902.062px" height="251.624px" viewBox="0 275.989 902.062 251.624" enable-background="new 0 275.989 902.062 251.624"
	 xml:space="preserve">
<g id="Layer_1_1_">
</g>
<g>
	<g id="Layer_2">
		<g>
			<path fill="#FFFFFF" d="M607.374,337.908c1.16,1.166,1.74,2.574,1.74,4.227c0,1.665-0.582,3.083-1.74,4.256
				c-1.162,1.172-2.568,1.76-4.227,1.76s-3.07-0.588-4.23-1.76c-1.152-1.173-1.729-2.592-1.729-4.256c0-1.65,0.58-3.06,1.738-4.227
				c1.166-1.172,2.57-1.76,4.221-1.76C604.799,336.146,606.208,336.736,607.374,337.908z M608.063,337.234
				c-1.354-1.349-2.994-2.021-4.916-2.021c-1.912,0-3.543,0.674-4.891,2.021c-1.355,1.357-2.035,2.99-2.035,4.899
				c0,1.931,0.672,3.573,2.018,4.931c1.35,1.359,2.982,2.041,4.908,2.041c1.922,0,3.563-0.683,4.916-2.041
				c1.355-1.362,2.035-3.006,2.035-4.931C610.098,340.218,609.418,338.584,608.063,337.234z M604.174,341.813
				c-0.281,0.113-0.709,0.17-1.273,0.17h-1.211v-2.762h1.145c0.742,0,1.285,0.096,1.619,0.283c0.338,0.188,0.51,0.563,0.51,1.115
				C604.961,341.208,604.7,341.605,604.174,341.813z M600.346,345.928h1.344v-3.008h1.061c0.713,0,1.209,0.082,1.492,0.245
				c0.48,0.284,0.723,0.868,0.723,1.75v0.604l0.025,0.246c0.008,0.032,0.014,0.06,0.021,0.086c0.008,0.027,0.014,0.049,0.021,0.076
				h1.258l-0.049-0.096c-0.031-0.063-0.053-0.193-0.066-0.396c-0.014-0.201-0.02-0.391-0.02-0.567v-0.558
				c0-0.386-0.139-0.778-0.414-1.183c-0.279-0.401-0.717-0.651-1.314-0.747c0.473-0.076,0.842-0.197,1.104-0.367
				c0.5-0.322,0.748-0.824,0.748-1.504c0-0.958-0.395-1.603-1.182-1.93c-0.443-0.18-1.137-0.271-2.082-0.271h-2.666v7.619H600.346
				L600.346,345.928z"/>
			<path fill="#FFFFFF" d="M274.08,277.998c1.682,3.195,3.363,6.895,2.018,10.761c-8.913,16.476-28.918,17.147-46.405,18.156
				l-22.529-0.168l-84.569-3.194c-18.662-1.175-36.316,1.348-50.775,10.088c-4.035,3.194-8.238,6.896-8.238,12.107
				c1.513,3.865,6.052,4.203,9.919,4.371c9.415,0.335,17.317-2.858,25.388-5.551c2.522-0.502,5.38-0.334,7.566,1.012
				c2.354,1.511,2.69,4.203,2.858,6.725c0.336,2.522-0.672,4.373-2.186,6.055c-11.097,8.406-25.724,9.246-40.183,8.574
				c-10.76-0.336-19.167-6.391-22.697-15.972c-3.026-14.123,7.229-23.875,16.309-31.104c36.484-21.688,86.25-11.435,129.292-10.594
				c20.007,0.338,40.855,1.012,59.854-2.352c7.229-1.346,12.946-5.885,18.158-10.424
				C270.213,275.141,272.565,276.821,274.08,277.998z"/>
			<path fill="#FFFFFF" d="M157.396,323.227l-0.168,3.531l-19.671,28.582l-34.13,48.419c-14.795,19.167-29.927,45.396-56.828,47.248
				c-16.309,2.352-32.113-4.203-40.687-15.973c-2.69-4.875-7.23-10.425-5.548-16.984c2.186-2.688,6.053-4.031,9.751-4.203
				c7.734,0.842,7.902,10.762,13.45,13.957c6.725,6.392,18.831,8.238,27.742,4.203c9.247-4.035,15.468-10.594,21.521-17.822
				l55.314-77.507c5.885-6.223,8.238-17.484,18.831-18.16C150.839,319.189,155.715,319.189,157.396,323.227z"/>
			<g>
				<circle fill="#FFFFFF" cx="195.563" cy="348.192" r="10.508"/>
				<path fill="#FFFFFF" d="M195.563,348.191"/>
			</g>
			<g>
				<circle fill="#FFFFFF" cx="450.071" cy="336.423" r="10.508"/>
				<path fill="#FFFFFF" d="M450.071,336.423"/>
			</g>
			<path fill="#FFFFFF" d="M611.012,358.534c-0.842-1.851-3.027-2.188-4.877-2.522l-31.438-0.17l-0.672-0.671
				c1.344-2.692,2.689-5.55,3.361-8.405c-0.506-5.551-4.875-9.248-9.754-10.93c-2.184-0.338-4.537,0.334-5.885,1.85
				c-3.023,5.885-5.377,11.938-8.908,17.822c-6.896,0.84-16.311-2.354-20.348,3.869c-1.682,3.023-2.184,7.229-0.84,10.422
				c2.02,4.709,8.072,2.521,12.105,3.531c-0.672,1.852-1.514,4.035-2.859,6.054c-6.555,10.257-12.777,23.708-26.229,26.564
				c1.348-16.479-5.547-30.599-12.441-44.218c-2.352-4.373-2.016-10.088-6.053-13.451c-2.354-1.344-5.885-1.344-8.574-0.67
				c-2.188,0.841-3.193,2.521-4.035,4.537c-4.875,19.334-14.963,36.82-27.74,50.945c-4.035,4.538-10.762,8.741-17.486,6.387
				c-3.361-1.513-4.203-5.716-3.863-9.414c3.023-12.104,8.066-23.539,12.607-35.14c0.842-2.353,1.852-5.044,0.842-7.565
				c-1.85-2.856-5.383-3.531-8.914-3.363c-4.033,0-7.396,1.852-9.414,5.044c-5.213,13.62-10.088,28.079-15.805,41.19
				c-3.865,5.383-10.422,8.575-16.645,10.762c-5.547,1.175-11.77,0.334-15.467-3.362c5.379-4.035,9.92-8.238,14.459-13.619
				c7.566-9.079,11.098-22.024,6.391-33.458c-2.689-5.548-8.574-9.751-14.963-9.919c-13.619-0.168-23.203,9.417-29.088,19.504
				c-4.707,9.583-6.389,21.855-4.371,32.956c-3.697,2.856-6.895,5.713-11.264,7.395c-8.238,3.533-19.336,2.02-26.566-2.351
				c-3.529-2.354-6.557-5.216-7.564-9.419c16.141-12.609,28.92-25.889,39.848-43.542c7.395-13.956,16.309-32.955,5.713-48.086
				c-2.35-3.026-5.713-5.044-9.414-6.055c-10.088-2.017-19.168,2.021-25.893,8.071c-21.521,20.849-35.978,49.431-32.279,82.552
				c-11.265,8.407-23.034,16.645-37.325,21.351c-7.062,1.348-15.3,0.673-20.007-5.379c-2.186-3.697-1.009-8.406,0.672-12.104
				l19.167-31.944c7.229-0.841,15.636,0.502,22.527-1.347c4.204-2.017,7.062-7.061,6.725-12.104
				c-0.336-1.347-1.177-2.522-2.521-3.028c-5.38-0.334-11.6,0.168-17.149-0.334c1.01-3.027,3.869-5.55,3.532-9.078
				c-1.177-3.531-5.044-4.709-8.406-4.875c-10.76-2.354-10.592,9.582-15.636,14.291c-5.213,0.506-11.098-0.336-15.804,1.347
				c-4.035,2.69-6.053,6.387-5.884,11.431c0.336,5.717,7.397,2.86,11.265,4.035l-0.17,0.673
				c-13.619,18.158-20.006,42.367-45.731,47.917c-3.699,0.841-7.902,0.334-10.087-3.028c-1.009-2.354-1.177-5.716-0.504-8.237
				c3.699-11.432,13.45-20.344,17.485-31.606v-1.513c-0.504-3.025-3.699-4.538-6.221-5.212c-3.699-1.009-7.734-0.507-10.256,2.522
				c-5.212,7.06-9.92,15.131-15.132,22.024c-8.911,12.944-21.688,20.343-35.475,26.06c-3.195,1.851-7.566,1.176-9.92,4.538
				c-0.504,1.179-1.009,2.859-0.336,4.203c3.195,3.534,6.894,9.418,13.114,8.406c11.265-2.69,19.671-9.75,29.423-14.96
				c1.513,4.031,4.371,9.075,8.238,11.431c13.45,6.054,31.776,3.531,43.209-4.876c2.858-1.681,5.043-4.371,7.902-5.713
				c1.345,2.69,3.867,5.212,6.389,7.566c11.937,10.928,32.279,7.228,45.729,1.51c10.088-3.865,18.831-10.757,27.741-15.801
				c1.177,1.681,2.522,3.361,3.699,5.212c9.417,12.776,27.069,18.326,43.713,13.784c8.406-2.017,15.299-6.726,23.035-10.591
				c4.537,4.203,10.256,7.396,16.307,9.415c14.459,5.213,30.771,0.503,41.191-8.743c3.363,3.193,6.895,6.223,11.264,8.237
				c12.947,5.716,25.051-2.521,34.639-9.75c4.871,4.538,8.908,9.582,15.467,11.599c7.061,2.354,16.645,2.02,21.855-3.697
				c10.93,0.673,20.344-2.69,28.414-8.238c4.537,6.053,10.422,10.256,17.486,12.275c11.936,3.361,24.881,0.672,33.959-7.063
				c4.035-3.023,6.391-7.733,4.877-12.943c-0.338-2.017-2.189-3.697-3.869-4.709c-1.85-0.503-4.035-0.669-5.547,0.171
				c-4.875,4.031-10.594,7.733-17.318,8.068c-4.539,0.672-9.248-0.503-11.602-4.204c-1.682-2.855-1.344-6.893-0.334-9.919
				c3.695-8.909,8.74-16.812,13.783-25.048c14.123-0.169,27.238-0.338,41.191-1.01c2.691-0.671,5.045-3.025,5.885-5.548
				C612.022,364.418,612.526,361.057,611.012,358.534z M323.844,329.782c3.869-4.708,8.238-9.247,14.629-10.593
				c1.512-0.168,2.352,1.176,2.857,2.187c1.346,9.417-4.203,16.644-8.072,23.708c-7.732,11.432-16.98,23.538-28.246,33.456
				C304.848,359.541,313.422,343.736,323.844,329.782z M372.602,395.352c-3.695-8.91,1.18-17.988,6.223-24.713
				c1.85-1.682,6.727-5.549,7.566-0.842C387.733,380.893,380.508,389.973,372.602,395.352z M495.002,407.458
				c-0.674,1.344-2.02,2.521-3.363,3.024c-5.211,1.514-9.078-3.024-11.77-6.054l0.168-1.175l9.92-19.335
				C493.995,390.307,497.524,399.052,495.002,407.458z"/>
		</g>
	</g>
	<g>
		<path fill="#FFFFFF" d="M11.754,511.025v16.109H1.651v-43.548h14.167c3.148,0,5.833,0.324,8.055,0.972
			c2.222,0.647,4.035,1.55,5.44,2.705c1.405,1.156,2.425,2.521,3.063,4.095c0.637,1.574,0.957,3.288,0.957,5.141
			c0,1.415-0.19,2.75-0.568,4.005c-0.379,1.256-0.942,2.417-1.689,3.482c-0.747,1.066-1.664,2.018-2.75,2.854
			c-1.086,0.837-2.336,1.524-3.751,2.062c0.677,0.34,1.31,0.758,1.898,1.256c0.587,0.498,1.101,1.105,1.539,1.823l9.265,15.153
			h-9.146c-1.694,0-2.91-0.638-3.646-1.913l-7.233-12.643c-0.319-0.558-0.693-0.956-1.121-1.195
			c-0.429-0.239-1.031-0.358-1.808-0.358H11.754z M11.754,504.061h4.065c1.375,0,2.545-0.174,3.512-0.522
			c0.966-0.349,1.758-0.832,2.376-1.45c0.618-0.617,1.066-1.34,1.345-2.167c0.279-0.826,0.418-1.718,0.418-2.675
			c0-1.913-0.623-3.407-1.868-4.483c-1.246-1.075-3.173-1.613-5.783-1.613h-4.065V504.061z"/>
		<path fill="#FFFFFF" d="M69.438,483.587v7.771H51.564v10.162h13.689v7.472H51.564v10.372h17.874v7.771H41.402v-43.548H69.438z"/>
		<path fill="#FFFFFF" d="M99.445,492.435c-0.299,0.478-0.613,0.837-0.941,1.076c-0.329,0.238-0.752,0.358-1.271,0.358
			c-0.458,0-0.952-0.145-1.479-0.434s-1.125-0.612-1.793-0.972c-0.668-0.358-1.43-0.682-2.287-0.971
			c-0.857-0.289-1.833-0.434-2.929-0.434c-1.893,0-3.302,0.403-4.229,1.21c-0.927,0.808-1.39,1.898-1.39,3.273
			c0,0.877,0.279,1.604,0.837,2.182c0.558,0.578,1.29,1.076,2.197,1.494c0.906,0.419,1.942,0.803,3.108,1.151
			c1.166,0.349,2.356,0.737,3.571,1.165c1.215,0.429,2.406,0.932,3.572,1.51s2.202,1.314,3.108,2.212
			c0.907,0.896,1.639,1.987,2.197,3.272c0.558,1.285,0.837,2.835,0.837,4.647c0,2.013-0.349,3.896-1.046,5.649
			c-0.698,1.753-1.709,3.282-3.034,4.588c-1.326,1.305-2.959,2.331-4.902,3.078s-4.15,1.121-6.62,1.121
			c-1.355,0-2.735-0.14-4.14-0.419c-1.405-0.278-2.765-0.672-4.08-1.181c-1.315-0.508-2.551-1.11-3.707-1.808
			s-2.162-1.475-3.019-2.332l2.989-4.722c0.219-0.359,0.528-0.647,0.927-0.867c0.398-0.219,0.827-0.329,1.285-0.329
			c0.598,0,1.2,0.19,1.808,0.568c0.607,0.379,1.295,0.797,2.063,1.255c0.767,0.459,1.648,0.877,2.645,1.256
			c0.996,0.379,2.171,0.567,3.527,0.567c1.833,0,3.258-0.403,4.274-1.21c1.016-0.808,1.524-2.087,1.524-3.841
			c0-1.017-0.279-1.843-0.837-2.48c-0.558-0.638-1.291-1.166-2.197-1.584c-0.907-0.419-1.938-0.787-3.094-1.106
			c-1.156-0.318-2.341-0.672-3.557-1.061s-2.401-0.867-3.557-1.435c-1.156-0.568-2.187-1.315-3.093-2.242
			c-0.907-0.927-1.639-2.082-2.197-3.467c-0.558-1.385-0.837-3.094-0.837-5.126c0-1.634,0.329-3.228,0.986-4.782
			c0.657-1.554,1.624-2.938,2.899-4.154c1.275-1.215,2.839-2.187,4.693-2.914c1.853-0.728,3.975-1.091,6.366-1.091
			c1.334,0,2.635,0.104,3.9,0.313c1.265,0.209,2.466,0.519,3.602,0.927s2.197,0.896,3.183,1.465c0.986,0.567,1.868,1.21,2.645,1.928
			L99.445,492.435z"/>
		<path fill="#FFFFFF" d="M135.61,483.587v7.771h-17.874v10.162h13.689v7.472h-13.689v10.372h17.874v7.771h-28.036v-43.548H135.61z"
			/>
		<path fill="#FFFFFF" d="M181.876,527.135h-7.831c-0.877,0-1.599-0.204-2.167-0.612s-0.961-0.932-1.181-1.569l-2.57-7.592H151.57
			l-2.57,7.592c-0.2,0.558-0.588,1.061-1.166,1.509c-0.578,0.448-1.285,0.673-2.122,0.673h-7.891l16.857-43.548h10.341
			L181.876,527.135z M153.901,510.487h11.896l-4.005-11.926c-0.259-0.757-0.563-1.648-0.912-2.675s-0.692-2.138-1.031-3.333
			c-0.319,1.216-0.647,2.342-0.986,3.378s-0.657,1.933-0.956,2.689L153.901,510.487z"/>
		<path fill="#FFFFFF" d="M195.505,511.025v16.109h-10.103v-43.548h14.167c3.148,0,5.833,0.324,8.055,0.972
			c2.222,0.647,4.035,1.55,5.44,2.705c1.405,1.156,2.425,2.521,3.063,4.095c0.637,1.574,0.957,3.288,0.957,5.141
			c0,1.415-0.19,2.75-0.568,4.005c-0.379,1.256-0.942,2.417-1.689,3.482c-0.747,1.066-1.664,2.018-2.75,2.854
			c-1.086,0.837-2.336,1.524-3.751,2.062c0.677,0.34,1.31,0.758,1.898,1.256c0.587,0.498,1.101,1.105,1.539,1.823l9.265,15.153
			h-9.146c-1.694,0-2.91-0.638-3.646-1.913l-7.233-12.643c-0.319-0.558-0.693-0.956-1.121-1.195
			c-0.429-0.239-1.031-0.358-1.808-0.358H195.505z M195.505,504.061h4.065c1.375,0,2.545-0.174,3.512-0.522
			c0.966-0.349,1.758-0.832,2.376-1.45c0.618-0.617,1.066-1.34,1.345-2.167c0.279-0.826,0.418-1.718,0.418-2.675
			c0-1.913-0.623-3.407-1.868-4.483c-1.246-1.075-3.173-1.613-5.783-1.613h-4.065V504.061z"/>
		<path fill="#FFFFFF" d="M252.921,515.867c0.239,0,0.479,0.045,0.718,0.134c0.239,0.09,0.468,0.244,0.687,0.464l4.005,4.214
			c-1.754,2.292-3.951,4.021-6.59,5.186c-2.641,1.166-5.764,1.749-9.37,1.749c-3.308,0-6.272-0.563-8.892-1.689
			c-2.62-1.125-4.842-2.68-6.665-4.662s-3.223-4.334-4.199-7.054c-0.977-2.72-1.464-5.674-1.464-8.862
			c0-3.247,0.558-6.231,1.673-8.951s2.675-5.066,4.678-7.039s4.398-3.507,7.188-4.603s5.868-1.644,9.236-1.644
			c1.633,0,3.173,0.145,4.618,0.434c1.444,0.289,2.794,0.687,4.05,1.195c1.255,0.508,2.411,1.116,3.467,1.823
			c1.056,0.707,1.992,1.489,2.81,2.346l-3.408,4.573c-0.219,0.279-0.478,0.533-0.777,0.762c-0.299,0.229-0.717,0.344-1.255,0.344
			c-0.359,0-0.698-0.079-1.016-0.239c-0.319-0.159-0.658-0.354-1.016-0.582c-0.359-0.229-0.752-0.479-1.181-0.747
			c-0.429-0.27-0.937-0.519-1.524-0.748c-0.588-0.229-1.275-0.423-2.063-0.582s-1.708-0.239-2.765-0.239
			c-1.833,0-3.507,0.324-5.021,0.971c-1.515,0.648-2.815,1.574-3.9,2.78c-1.086,1.206-1.933,2.665-2.541,4.379
			c-0.608,1.714-0.912,3.636-0.912,5.768c0,2.232,0.303,4.215,0.912,5.948c0.607,1.733,1.435,3.193,2.48,4.379
			c1.046,1.186,2.267,2.087,3.662,2.705c1.395,0.617,2.889,0.926,4.483,0.926c0.917,0,1.753-0.045,2.511-0.134
			c0.757-0.09,1.459-0.244,2.107-0.464c0.647-0.219,1.265-0.503,1.853-0.852c0.587-0.349,1.181-0.782,1.778-1.3
			c0.239-0.199,0.498-0.363,0.777-0.493C252.333,515.932,252.622,515.867,252.921,515.867z"/>
		<path fill="#FFFFFF" d="M300.952,527.135H290.79v-18.411h-17.694v18.411h-10.162v-43.548h10.162v18.202h17.694v-18.202h10.162
			V527.135z"/>
		<path fill="#FFFFFF" d="M360.19,527.135h-7.831c-0.877,0-1.599-0.204-2.167-0.612c-0.567-0.408-0.961-0.932-1.18-1.569
			l-2.571-7.592h-16.558l-2.57,7.592c-0.199,0.558-0.588,1.061-1.166,1.509s-1.285,0.673-2.122,0.673h-7.891l16.857-43.548h10.341
			L360.19,527.135z M332.214,510.487h11.896l-4.005-11.926c-0.259-0.757-0.563-1.648-0.911-2.675
			c-0.35-1.026-0.693-2.138-1.031-3.333c-0.319,1.216-0.648,2.342-0.986,3.378c-0.34,1.036-0.658,1.933-0.957,2.689L332.214,510.487
			z"/>
		<path fill="#FFFFFF" d="M370.143,483.647c0.299,0.04,0.567,0.114,0.807,0.224c0.239,0.11,0.468,0.265,0.688,0.464
			c0.219,0.199,0.468,0.468,0.747,0.807l20.684,26.152c-0.08-0.837-0.14-1.648-0.18-2.436s-0.06-1.529-0.06-2.228v-23.044h8.906
			v43.548h-5.26c-0.777,0-1.435-0.119-1.973-0.358s-1.057-0.678-1.555-1.315l-20.533-25.943c0.06,0.758,0.109,1.5,0.149,2.227
			c0.04,0.728,0.06,1.41,0.06,2.048v23.343h-8.906v-43.548h5.32C369.475,483.587,369.844,483.607,370.143,483.647z"/>
		<path fill="#FFFFFF" d="M448.419,505.346c0,3.149-0.543,6.053-1.629,8.713s-2.615,4.962-4.588,6.904
			c-1.972,1.942-4.349,3.457-7.128,4.543s-5.863,1.629-9.25,1.629h-16.917v-43.548h16.917c3.387,0,6.471,0.549,9.25,1.645
			s5.156,2.61,7.128,4.543c1.973,1.933,3.502,4.229,4.588,6.889C447.876,499.323,448.419,502.218,448.419,505.346z M438.079,505.346
			c0-2.151-0.279-4.095-0.837-5.828c-0.559-1.733-1.36-3.202-2.406-4.408c-1.046-1.205-2.326-2.132-3.841-2.779
			s-3.238-0.972-5.17-0.972h-6.755v28.006h6.755c1.932,0,3.655-0.324,5.17-0.972s2.795-1.574,3.841-2.78
			c1.046-1.205,1.848-2.675,2.406-4.408C437.799,509.471,438.079,507.519,438.079,505.346z"/>
		<path fill="#FFFFFF" d="M504.31,505.346c0,3.149-0.543,6.053-1.629,8.713s-2.615,4.962-4.588,6.904
			c-1.972,1.942-4.349,3.457-7.128,4.543s-5.863,1.629-9.25,1.629h-16.917v-43.548h16.917c3.387,0,6.471,0.549,9.25,1.645
			s5.156,2.61,7.128,4.543c1.973,1.933,3.502,4.229,4.588,6.889C503.767,499.323,504.31,502.218,504.31,505.346z M493.969,505.346
			c0-2.151-0.279-4.095-0.837-5.828c-0.559-1.733-1.36-3.202-2.406-4.408c-1.046-1.205-2.326-2.132-3.841-2.779
			s-3.238-0.972-5.17-0.972h-6.755v28.006h6.755c1.932,0,3.655-0.324,5.17-0.972s2.795-1.574,3.841-2.78
			c1.046-1.205,1.848-2.675,2.406-4.408C493.69,509.471,493.969,507.519,493.969,505.346z"/>
		<path fill="#FFFFFF" d="M537.187,483.587v7.771h-17.873v10.162h13.688v7.472h-13.688v10.372h17.873v7.771h-28.035v-43.548H537.187
			z"/>
		<path fill="#FFFFFF" d="M539.338,483.587h8.13c0.876,0,1.594,0.2,2.151,0.599s0.957,0.926,1.196,1.584l8.428,23.313
			c0.379,1.017,0.763,2.122,1.151,3.317c0.389,1.196,0.752,2.451,1.091,3.767c0.278-1.315,0.603-2.57,0.972-3.767
			c0.368-1.195,0.731-2.301,1.091-3.317l8.368-23.313c0.199-0.558,0.588-1.062,1.166-1.51c0.577-0.448,1.285-0.673,2.122-0.673
			h8.189l-17.455,43.548h-9.146L539.338,483.587z"/>
		<path fill="#FFFFFF" d="M615.016,483.587v7.771h-17.873v10.162h13.688v7.472h-13.688v10.372h17.873v7.771h-28.035v-43.548H615.016
			z"/>
		<path fill="#FFFFFF" d="M630.855,519.064h16.141v8.07h-26.242v-43.548h10.102V519.064z"/>
		<path fill="#FFFFFF" d="M692.367,505.346c0,3.149-0.543,6.078-1.629,8.788c-1.087,2.71-2.615,5.065-4.588,7.068
			c-1.973,2.002-4.349,3.571-7.129,4.707c-2.779,1.136-5.863,1.704-9.25,1.704c-3.388,0-6.477-0.568-9.266-1.704
			c-2.79-1.136-5.176-2.705-7.158-4.707c-1.983-2.003-3.517-4.358-4.603-7.068c-1.087-2.71-1.629-5.639-1.629-8.788
			c0-3.147,0.542-6.077,1.629-8.787c1.086-2.709,2.619-5.061,4.603-7.054c1.982-1.992,4.368-3.557,7.158-4.692
			c2.789-1.136,5.878-1.703,9.266-1.703c3.387,0,6.471,0.573,9.25,1.719c2.78,1.146,5.156,2.715,7.129,4.707
			c1.973,1.993,3.501,4.344,4.588,7.054C691.824,499.299,692.367,502.218,692.367,505.346z M682.025,505.346
			c0-2.151-0.279-4.089-0.837-5.813s-1.359-3.184-2.406-4.379c-1.046-1.195-2.326-2.112-3.84-2.75
			c-1.515-0.638-3.238-0.956-5.171-0.956c-1.953,0-3.691,0.318-5.216,0.956s-2.81,1.555-3.855,2.75s-1.849,2.655-2.406,4.379
			s-0.837,3.661-0.837,5.813c0,2.173,0.279,4.12,0.837,5.844s1.36,3.183,2.406,4.379c1.046,1.195,2.331,2.106,3.855,2.734
			s3.263,0.941,5.216,0.941c1.933,0,3.656-0.313,5.171-0.941c1.514-0.628,2.794-1.539,3.84-2.734
			c1.047-1.196,1.849-2.655,2.406-4.379S682.025,507.519,682.025,505.346z"/>
		<path fill="#FFFFFF" d="M707.309,512.579v14.556h-10.102v-43.548h15.362c3.068,0,5.703,0.364,7.905,1.092s4.015,1.729,5.44,3.003
			c1.424,1.275,2.476,2.78,3.152,4.514c0.678,1.733,1.017,3.606,1.017,5.619c0,2.172-0.349,4.164-1.046,5.978
			c-0.698,1.813-1.764,3.367-3.198,4.662c-1.435,1.296-3.253,2.307-5.455,3.034c-2.201,0.728-4.807,1.091-7.815,1.091H707.309z
			 M707.309,504.958h5.261c2.63,0,4.523-0.628,5.679-1.884c1.155-1.255,1.733-3.008,1.733-5.26c0-0.996-0.149-1.902-0.448-2.72
			s-0.752-1.52-1.359-2.107c-0.608-0.588-1.375-1.041-2.302-1.36c-0.927-0.318-2.027-0.478-3.303-0.478h-5.261V504.958z"/>
		<path fill="#FFFFFF" d="M758.762,509.588c0.369,0.817,0.723,1.655,1.062,2.513c0.339-0.877,0.697-1.729,1.076-2.558
			c0.378-0.828,0.767-1.631,1.165-2.409l11.179-22.021c0.198-0.379,0.403-0.673,0.612-0.883c0.209-0.209,0.443-0.363,0.702-0.463
			c0.259-0.101,0.554-0.15,0.882-0.15c0.329,0,0.713,0,1.151,0h7.711v43.518h-8.907v-25.047c0-1.215,0.061-2.53,0.18-3.945
			l-11.537,22.387c-0.358,0.698-0.842,1.226-1.449,1.584c-0.608,0.359-1.301,0.538-2.077,0.538h-1.375
			c-0.777,0-1.47-0.179-2.077-0.538c-0.608-0.358-1.091-0.886-1.45-1.584l-11.597-22.416c0.08,0.697,0.14,1.39,0.18,2.077
			s0.06,1.32,0.06,1.897v25.047h-8.906v-43.518h7.711c0.438,0,0.822,0,1.15,0c0.329,0,0.623,0.05,0.882,0.15
			c0.259,0.1,0.493,0.254,0.702,0.463c0.21,0.21,0.414,0.504,0.613,0.883l11.208,22.11
			C758.01,507.982,758.394,508.771,758.762,509.588z"/>
		<path fill="#FFFFFF" d="M819.51,483.587v7.771h-17.873v10.162h13.688v7.472h-13.688v10.372h17.873v7.771h-28.035v-43.548H819.51z"
			/>
		<path fill="#FFFFFF" d="M831.673,483.647c0.299,0.04,0.567,0.114,0.807,0.224c0.239,0.11,0.468,0.265,0.688,0.464
			c0.219,0.199,0.468,0.468,0.747,0.807l20.684,26.152c-0.08-0.837-0.14-1.648-0.18-2.436s-0.06-1.529-0.06-2.228v-23.044h8.906
			v43.548h-5.26c-0.777,0-1.435-0.119-1.973-0.358s-1.057-0.678-1.555-1.315l-20.533-25.943c0.06,0.758,0.109,1.5,0.149,2.227
			c0.04,0.728,0.06,1.41,0.06,2.048v23.343h-8.906v-43.548h5.32C831.005,483.587,831.375,483.607,831.673,483.647z"/>
		<path fill="#FFFFFF" d="M902.061,483.587v8.011h-12.255v35.537h-10.103v-35.537H867.45v-8.011H902.061z"/>
	</g>
</g>
</svg>
