<svg xmlns="http://www.w3.org/2000/svg" xmlns:xlink="http://www.w3.org/1999/xlink" version="1.1" id="Layer_1" x="0px" y="0px" width="612px" height="792px" viewBox="0 0 612 792" enable-background="new 0 0 612 792" xml:space="preserve">
<g id="Layer_2">
	<g>
		<path fill="#FFFFFF" d="M607.373 337.908c1.16 1.2 1.7 2.6 1.7 4.227c0 1.665-0.582 3.083-1.74 4.3 c-1.162 1.172-2.567 1.76-4.227 1.76c-1.658 0-3.07-0.588-4.23-1.76c-1.151-1.172-1.729-2.591-1.729-4.255 c0-1.651 0.581-3.06 1.739-4.227c1.166-1.172 2.571-1.76 4.221-1.76C604.799 336.1 606.2 336.7 607.4 337.908z M608.063 337.235c-1.354-1.349-2.994-2.022-4.916-2.022c-1.912 0-3.543 0.674-4.89 2.022c-1.356 1.357-2.036 2.989-2.036 4.9 c0 1.9 0.7 3.6 2 4.93c1.35 1.4 3 2 4.9 2.042c1.922 0 3.563-0.683 4.916-2.042 c1.356-1.362 2.036-3.005 2.036-4.93C610.099 340.2 609.4 338.6 608.1 337.235z M604.175 341.8 c-0.282 0.114-0.709 0.171-1.274 0.171h-1.212v-2.763h1.146c0.742 0 1.3 0.1 1.6 0.284c0.338 0.2 0.5 0.6 0.5 1.1 C604.962 341.2 604.7 341.6 604.2 341.812z M600.346 345.928h1.343v-3.008h1.062c0.713 0 1.2 0.1 1.5 0.2 c0.482 0.3 0.7 0.9 0.7 1.75v0.604l0.026 0.247c0.007 0 0 0.1 0 0.086s0.014 0 0 0.076h1.258 l-0.049-0.096c-0.03-0.063-0.053-0.193-0.066-0.397c-0.013-0.2-0.02-0.39-0.02-0.567v-0.558c0-0.385-0.138-0.778-0.414-1.182 c-0.279-0.402-0.716-0.652-1.313-0.747c0.472-0.076 0.84-0.198 1.103-0.368c0.499-0.321 0.748-0.824 0.748-1.503 c0-0.958-0.394-1.603-1.182-1.93c-0.444-0.18-1.137-0.272-2.082-0.272h-2.666v7.62H600.346z"/>
		<path fill="#FFFFFF" d="M274.08 277.998c1.682 3.2 3.4 6.9 2 10.761c-8.913 16.475-28.918 17.147-46.405 18.2 l-22.529-0.168l-84.569-3.194c-18.662-1.175-36.316 1.347-50.775 10.088c-4.035 3.194-8.238 6.895-8.238 12.1 c1.513 3.9 6.1 4.2 9.9 4.371c9.415 0.3 17.317-2.858 25.388-5.55c2.522-0.502 5.38-0.334 7.6 1 c2.354 1.5 2.7 4.2 2.9 6.725c0.336 2.522-0.672 4.373-2.186 6.054c-11.097 8.407-25.724 9.247-40.183 8.6 c-10.76-0.336-19.167-6.391-22.697-15.972c-3.026-14.123 7.229-23.875 16.309-31.104c36.484-21.689 86.25-11.435 129.292-10.594 c20.007 0.3 40.9 1 59.854-2.352c7.229-1.345 12.946-5.884 18.158-10.424C270.213 275.1 272.6 276.8 274.1 277.998z "/>
		<path fill="#FFFFFF" d="M157.396 323.227l-0.168 3.531l-19.671 28.582l-34.13 48.419c-14.795 19.167-29.927 45.396-56.828 47.2 c-16.309 2.351-32.113-4.203-40.687-15.973c-2.69-4.875-7.23-10.425-5.548-16.984c2.186-2.689 6.053-4.031 9.751-4.203 c7.734 0.8 7.9 10.8 13.4 13.957c6.725 6.4 18.8 8.2 27.7 4.203c9.247-4.035 15.468-10.594 21.521-17.822 l55.314-77.507c5.885-6.223 8.238-17.485 18.831-18.16C150.839 319.2 155.7 319.2 157.4 323.227z"/>
		<g>
			<circle fill="#FFFFFF" cx="195.6" cy="348.2" r="10.5"/>
			<path fill="#FFFFFF" d="M195.563 348.2"/>
		</g>
		<g>
			<circle fill="#FFFFFF" cx="450.1" cy="336.4" r="10.5"/>
			<path fill="#FFFFFF" d="M450.071 336.4"/>
		</g>
		<path fill="#FFFFFF" d="M611.012 358.534c-0.841-1.851-3.028-2.188-4.876-2.522l-31.438-0.17l-0.673-0.671 c1.344-2.692 2.69-5.55 3.362-8.406c-0.506-5.55-4.875-9.248-9.753-10.929c-2.184-0.338-4.538 0.334-5.885 1.9 c-3.024 5.884-5.378 11.937-8.909 17.822c-6.896 0.84-16.31-2.354-20.347 3.869c-1.682 3.024-2.184 7.228-0.841 10.4 c2.02 4.7 8.1 2.5 12.1 3.531c-0.673 1.851-1.514 4.035-2.86 6.054c-6.554 10.257-12.777 23.708-26.228 26.6 c1.347-16.479-5.547-30.598-12.442-44.218c-2.351-4.373-2.016-10.087-6.053-13.45c-2.354-1.345-5.884-1.345-8.574-0.671 c-2.188 0.841-3.194 2.522-4.035 4.538c-4.876 19.334-14.964 36.82-27.741 50.945c-4.035 4.538-10.761 8.741-17.485 6.4 c-3.362-1.513-4.203-5.716-3.865-9.415c3.024-12.104 8.068-23.538 12.609-35.139c0.841-2.353 1.85-5.044 0.841-7.566 c-1.85-2.856-5.382-3.531-8.913-3.363c-4.034 0-7.397 1.851-9.415 5.044c-5.212 13.62-10.088 28.079-15.804 41.2 c-3.865 5.382-10.423 8.575-16.646 10.761c-5.546 1.175-11.769 0.334-15.466-3.362c5.379-4.035 9.92-8.238 14.459-13.619 c7.566-9.079 11.097-22.025 6.391-33.458c-2.689-5.548-8.574-9.751-14.963-9.919c-13.619-0.168-23.204 9.417-29.089 19.5 c-4.706 9.583-6.387 21.855-4.371 32.956c-3.697 2.856-6.894 5.713-11.263 7.394c-8.238 3.534-19.335 2.02-26.566-2.35 c-3.53-2.354-6.557-5.216-7.565-9.419c16.14-12.61 28.92-25.889 39.848-43.542c7.395-13.956 16.308-32.955 5.713-48.086 c-2.35-3.026-5.713-5.044-9.415-6.055c-10.088-2.016-19.167 2.02-25.892 8.072c-21.521 20.848-35.978 49.43-32.279 82.6 c-11.265 8.407-23.034 16.645-37.325 21.351c-7.062 1.347-15.3 0.673-20.007-5.379c-2.186-3.697-1.009-8.406 0.672-12.104 l19.167-31.944c7.229-0.841 15.6 0.5 22.527-1.347c4.204-2.016 7.062-7.06 6.725-12.104c-0.336-1.347-1.177-2.522-2.521-3.028 c-5.38-0.334-11.6 0.168-17.149-0.334c1.01-3.028 3.869-5.55 3.532-9.079c-1.177-3.531-5.044-4.709-8.406-4.875 c-10.76-2.354-10.592 9.583-15.636 14.291c-5.213 0.506-11.098-0.335-15.804 1.347c-4.035 2.69-6.053 6.387-5.884 11.4 c0.336 5.7 7.4 2.9 11.3 4.035l-0.17 0.673c-13.619 18.158-20.006 42.367-45.731 47.9 c-3.699 0.841-7.902 0.334-10.087-3.028c-1.009-2.354-1.177-5.716-0.504-8.238c3.699-11.431 13.45-20.344 17.485-31.606v-1.513 c-0.504-3.026-3.699-4.538-6.221-5.212c-3.699-1.009-7.734-0.506-10.256 2.522c-5.212 7.06-9.92 15.132-15.132 22 c-8.911 12.944-21.688 20.343-35.475 26.06c-3.195 1.85-7.566 1.175-9.92 4.538c-0.504 1.178-1.009 2.859-0.336 4.2 c3.195 3.5 6.9 9.4 13.1 8.406c11.265-2.69 19.671-9.75 29.423-14.96c1.513 4 4.4 9.1 8.2 11.4 c13.45 6.1 31.8 3.5 43.209-4.876c2.858-1.681 5.043-4.371 7.902-5.713c1.345 2.7 3.9 5.2 6.4 7.6 c11.937 10.9 32.3 7.2 45.7 1.51c10.088-3.865 18.831-10.757 27.741-15.801c1.177 1.7 2.5 3.4 3.7 5.2 c9.417 12.8 27.1 18.3 43.7 13.784c8.407-2.016 15.3-6.725 23.036-10.59c4.537 4.2 10.3 7.4 16.3 9.4 c14.459 5.2 30.8 0.5 41.191-8.744c3.363 3.2 6.9 6.2 11.3 8.238c12.947 5.7 25.051-2.522 34.638-9.75 c4.872 4.5 8.9 9.6 15.5 11.598c7.061 2.4 16.6 2 21.857-3.697c10.929 0.7 20.344-2.69 28.414-8.238 c4.537 6.1 10.4 10.3 17.5 12.275c11.937 3.4 24.9 0.7 33.96-7.063c4.035-3.024 6.391-7.734 4.876-12.944 c-0.338-2.016-2.188-3.697-3.868-4.709c-1.85-0.503-4.035-0.669-5.547 0.171c-4.876 4.032-10.594 7.734-17.319 8.1 c-4.538 0.672-9.247-0.503-11.601-4.204c-1.682-2.856-1.344-6.893-0.335-9.919c3.697-8.909 8.741-16.812 13.785-25.048 c14.123-0.169 27.238-0.338 41.191-1.01c2.69-0.671 5.044-3.026 5.885-5.548C612.021 364.4 612.5 361.1 611 358.534z M323.845 329.782c3.868-4.708 8.238-9.247 14.629-10.592c1.51-0.168 2.4 1.2 2.9 2.2 c1.347 9.417-4.203 16.644-8.072 23.708c-7.733 11.431-16.98 23.538-28.246 33.5 C304.848 359.5 313.4 343.7 323.8 329.782z M372.602 395.351c-3.696-8.909 1.179-17.988 6.223-24.713 c1.85-1.681 6.726-5.548 7.566-0.841C387.733 380.9 380.5 390 372.6 395.351z M495.002 407.5 c-0.673 1.344-2.02 2.521-3.362 3.024c-5.212 1.514-9.079-3.024-11.77-6.053l0.168-1.175l9.92-19.335 C493.995 390.3 497.5 399.1 495 407.458z"/>
	</g>
</g>
<g id="Layer_1_1_">
</g>
<g id="Titleist_Logos">
	<g>
		<path fill="#FFFFFF" d="M46.004 525.693h-8.177c-0.915 0-1.668-0.214-2.263-0.641c-0.595-0.425-1.003-0.973-1.233-1.641 l-2.685-7.927H14.355l-2.685 7.927c-0.209 0.584-0.613 1.109-1.217 1.577c-0.603 0.467-1.343 0.702-2.215 0.702h-8.239 l17.603-45.474h10.8L46.004 525.693z M16.79 508.31h12.42l-4.181-12.453c-0.27-0.79-0.588-1.722-0.952-2.792 c-0.364-1.071-0.723-2.232-1.077-3.481c-0.331 1.271-0.676 2.446-1.029 3.529c-0.355 1.083-0.687 2.02-0.999 2.81L16.79 508.31z"/>
		<path fill="#FFFFFF" d="M78.368 513.927c0.25 0 0.5 0 0.7 0.141c0.25 0.1 0.5 0.3 0.7 0.483l4.183 4.4 c-1.832 2.392-4.125 4.196-6.883 5.414c-2.756 1.217-6.018 1.829-9.784 1.829c-3.453 0-6.549-0.588-9.283-1.764 c-2.737-1.176-5.056-2.799-6.959-4.871c-1.903-2.068-3.365-4.524-4.385-7.364c-1.019-2.84-1.529-5.925-1.529-9.254 c0-3.392 0.584-6.507 1.748-9.348c1.165-2.84 2.792-5.29 4.885-7.351s4.593-3.66 7.506-4.806c2.913-1.144 6.127-1.716 9.643-1.716 c1.706 0 3.3 0.2 4.8 0.452c1.51 0.3 2.9 0.7 4.2 1.248c1.309 0.5 2.5 1.2 3.6 1.9 c1.103 0.7 2.1 1.6 2.9 2.453l-3.557 4.775c-0.228 0.29-0.5 0.558-0.812 0.794c-0.313 0.239-0.75 0.36-1.311 0.4 c-0.375 0-0.728-0.085-1.062-0.25c-0.331-0.167-0.687-0.369-1.061-0.608c-0.375-0.238-0.786-0.499-1.233-0.778 c-0.448-0.281-0.978-0.543-1.591-0.782c-0.613-0.236-1.333-0.441-2.153-0.606c-0.823-0.166-1.785-0.25-2.888-0.25 c-1.916 0-3.662 0.338-5.245 1.017c-1.58 0.673-2.938 1.645-4.073 2.901c-1.135 1.26-2.02 2.784-2.653 4.6 c-0.633 1.79-0.951 3.798-0.951 6.023c0 2.3 0.3 4.4 1 6.212c0.635 1.8 1.5 3.3 2.6 4.6 c1.093 1.2 2.4 2.2 3.8 2.825c1.456 0.6 3 1 4.7 0.967c0.958 0 1.832-0.045 2.623-0.14 c0.79-0.093 1.524-0.254 2.2-0.484s1.322-0.525 1.936-0.889c0.614-0.364 1.233-0.817 1.855-1.359 c0.25-0.209 0.521-0.379 0.813-0.515C77.754 514 78.1 513.9 78.4 513.927z"/>
		<path fill="#FFFFFF" d="M133.704 502.942c0 3.285-0.568 6.346-1.701 9.177c-1.135 2.828-2.732 5.289-4.791 7.4 c-2.061 2.094-4.541 3.729-7.445 4.916s-6.124 1.781-9.659 1.781c-3.537 0-6.762-0.595-9.675-1.781 c-2.915-1.187-5.406-2.825-7.475-4.916c-2.069-2.09-3.673-4.548-4.806-7.379c-1.132-2.831-1.701-5.889-1.701-9.177 s0.566-6.345 1.701-9.177c1.135-2.828 2.737-5.284 4.806-7.366c2.069-2.08 4.562-3.715 7.475-4.898 c2.913-1.186 6.138-1.778 9.675-1.778c3.538 0 6.8 0.6 9.7 1.793c2.902 1.2 5.4 2.8 7.4 4.9 c2.061 2.1 3.7 4.5 4.8 7.365C133.135 496.6 133.7 499.7 133.7 502.942z M122.904 502.9 c0-2.247-0.293-4.27-0.874-6.068c-0.583-1.801-1.421-3.324-2.513-4.573c-1.091-1.25-2.429-2.205-4.011-2.873 c-1.582-0.665-3.382-0.999-5.399-0.999c-2.039 0-3.856 0.334-5.447 0.999c-1.591 0.668-2.933 1.623-4.026 2.9 c-1.092 1.249-1.929 2.772-2.513 4.573c-0.583 1.799-0.874 3.821-0.874 6.068c0 2.3 0.3 4.3 0.9 6.1 c0.581 1.8 1.4 3.3 2.5 4.57c1.093 1.2 2.4 2.2 4 2.857c1.591 0.7 3.4 1 5.4 1 c2.017 0 3.817-0.328 5.399-0.982c1.581-0.656 2.917-1.607 4.011-2.857c1.091-1.246 1.929-2.77 2.513-4.57 C122.611 507.2 122.9 505.2 122.9 502.942z"/>
		<path fill="#FFFFFF" d="M157.672 517.361c1.415 0 2.679-0.235 3.792-0.702c1.113-0.47 2.054-1.139 2.825-2.016 c0.769-0.871 1.358-1.937 1.763-3.196c0.405-1.261 0.609-2.689 0.609-4.292v-26.935h10.548v26.935 c0 2.789-0.452 5.347-1.356 7.676c-0.905 2.331-2.201 4.341-3.886 6.024c-1.686 1.686-3.735 2.997-6.149 3.9 s-5.128 1.403-8.145 1.403c-3.038 0-5.763-0.469-8.177-1.403c-2.414-0.938-4.463-2.248-6.147-3.934 c-1.686-1.684-2.975-3.692-3.871-6.024c-0.895-2.329-1.341-4.89-1.341-7.676v-26.935h10.547v26.902 c0 1.6 0.2 3 0.6 4.292c0.407 1.3 1 2.3 1.8 3.214c0.768 0.9 1.7 1.6 2.8 2 C154.993 517.1 156.3 517.4 157.7 517.361z"/>
		<path fill="#FFFFFF" d="M209.417 489.458c-0.312 0.5-0.639 0.874-0.983 1.122c-0.343 0.25-0.786 0.377-1.326 0.4 c-0.479 0-0.993-0.151-1.544-0.455c-0.551-0.301-1.175-0.639-1.873-1.014c-0.697-0.374-1.492-0.712-2.387-1.014 c-0.896-0.304-1.914-0.455-3.058-0.455c-1.977 0-3.449 0.423-4.416 1.265c-0.966 0.844-1.451 1.983-1.451 3.4 c0 0.9 0.3 1.7 0.9 2.277c0.584 0.6 1.3 1.1 2.3 1.563c0.945 0.4 2 0.8 3.2 1.2 c1.216 0.4 2.5 0.8 3.7 1.217c1.268 0.4 2.5 1 3.7 1.576c1.217 0.6 2.3 1.4 3.2 2.3 c0.947 0.9 1.7 2.1 2.3 3.42c0.581 1.3 0.9 3 0.9 4.852c0 2.101-0.364 4.069-1.092 5.9 c-0.728 1.832-1.785 3.429-3.169 4.792c-1.384 1.363-3.089 2.435-5.117 3.215c-2.028 0.779-4.334 1.171-6.914 1.2 c-1.416 0-2.856-0.146-4.323-0.437c-1.466-0.294-2.887-0.703-4.261-1.234c-1.374-0.528-2.664-1.158-3.869-1.888 c-1.208-0.729-2.258-1.54-3.152-2.436l3.12-4.93c0.228-0.375 0.551-0.674 0.968-0.905c0.416-0.228 0.864-0.344 1.341-0.344 c0.625 0 1.3 0.2 1.9 0.592c0.635 0.4 1.4 0.8 2.2 1.312c0.801 0.5 1.7 0.9 2.8 1.31s2.267 0.6 3.7 0.6 c1.914 0 3.401-0.421 4.463-1.265c1.061-0.843 1.591-2.179 1.591-4.008c0-1.062-0.291-1.928-0.874-2.59 c-0.583-0.668-1.348-1.217-2.293-1.656c-0.947-0.438-2.024-0.822-3.229-1.154c-1.208-0.333-2.446-0.701-3.714-1.108 s-2.508-0.907-3.713-1.499c-1.206-0.593-2.285-1.373-3.229-2.341c-0.945-0.967-1.712-2.173-2.293-3.62s-0.874-3.23-0.874-5.353 c0-1.705 0.345-3.37 1.031-4.993s1.696-3.067 3.027-4.338s2.965-2.285 4.9-3.043c1.933-0.762 4.151-1.138 6.646-1.138 c1.393 0 2.8 0.1 4.1 0.326s2.575 0.5 3.8 0.967c1.186 0.4 2.3 0.9 3.3 1.5 c1.029 0.6 2 1.3 2.8 2.015L209.417 489.458z"/>
		<path fill="#FFFFFF" d="M250.927 480.221v8.363h-12.795v37.109h-10.549v-37.109h-12.795v-8.363H250.927z"/>
		<path fill="#FFFFFF" d="M266.844 525.693h-10.612v-45.473h10.612V525.693z"/>
		<path fill="#FFFFFF" d="M305.826 513.927c0.248 0 0.5 0 0.7 0.141c0.25 0.1 0.5 0.3 0.7 0.483l4.182 4.4 c-1.832 2.392-4.126 4.196-6.882 5.414c-2.755 1.22-6.018 1.829-9.783 1.829c-3.453 0-6.549-0.588-9.284-1.764 c-2.736-1.176-5.057-2.799-6.96-4.871c-1.903-2.068-3.365-4.524-4.383-7.364c-1.021-2.84-1.531-5.925-1.531-9.254 c0-3.392 0.584-6.507 1.749-9.348c1.164-2.84 2.792-5.29 4.884-7.351c2.091-2.061 4.593-3.66 7.506-4.806 c2.913-1.144 6.127-1.716 9.643-1.716c1.706 0 3.3 0.2 4.8 0.452c1.507 0.3 2.9 0.7 4.2 1.2 c1.312 0.5 2.5 1.2 3.6 1.903c1.104 0.7 2.1 1.6 2.9 2.453l-3.559 4.775c-0.229 0.29-0.498 0.558-0.812 0.8 c-0.313 0.239-0.749 0.36-1.31 0.36c-0.374 0-0.729-0.085-1.062-0.25c-0.332-0.167-0.684-0.369-1.06-0.608 c-0.376-0.238-0.785-0.499-1.233-0.778c-0.448-0.281-0.978-0.543-1.592-0.782c-0.613-0.236-1.33-0.441-2.152-0.606 c-0.823-0.166-1.784-0.25-2.887-0.25c-1.916 0-3.662 0.338-5.245 1.017c-1.579 0.673-2.938 1.645-4.073 2.9 c-1.134 1.26-2.02 2.784-2.652 4.573c-0.633 1.79-0.952 3.798-0.952 6.023c0 2.3 0.3 4.4 1 6.212s1.498 3.3 2.6 4.6 c1.094 1.2 2.4 2.2 3.8 2.825c1.454 0.6 3 1 4.7 0.967c0.957 0 1.833-0.045 2.623-0.14 c0.791-0.093 1.524-0.254 2.201-0.484c0.674-0.229 1.319-0.525 1.934-0.889c0.614-0.364 1.232-0.817 1.856-1.359 c0.25-0.209 0.519-0.379 0.812-0.515C305.211 514 305.5 513.9 305.8 513.927z"/>
		<path fill="#FFFFFF" d="M341.621 489.458c-0.313 0.5-0.642 0.874-0.984 1.122c-0.342 0.25-0.785 0.377-1.325 0.4 c-0.48 0-0.995-0.151-1.547-0.455c-0.55-0.301-1.176-0.639-1.871-1.014c-0.696-0.374-1.491-0.712-2.387-1.014 c-0.894-0.304-1.915-0.455-3.059-0.455c-1.978 0-3.449 0.423-4.416 1.265c-0.968 0.844-1.452 1.983-1.452 3.4 c0 0.9 0.3 1.7 0.9 2.277c0.584 0.6 1.3 1.1 2.3 1.563c0.947 0.4 2 0.8 3.2 1.2 s2.461 0.8 3.7 1.217c1.269 0.4 2.5 1 3.7 1.576c1.217 0.6 2.3 1.4 3.2 2.3 c0.945 0.9 1.7 2.1 2.3 3.42c0.582 1.3 0.9 3 0.9 4.852c0 2.101-0.363 4.069-1.092 5.9 c-0.73 1.832-1.784 3.429-3.169 4.792c-1.384 1.363-3.09 2.435-5.117 3.215c-2.028 0.779-4.334 1.171-6.914 1.2 c-1.414 0-2.854-0.146-4.323-0.437c-1.468-0.294-2.886-0.703-4.261-1.234c-1.373-0.528-2.663-1.158-3.87-1.888 c-1.208-0.729-2.259-1.54-3.152-2.436l3.12-4.93c0.228-0.375 0.55-0.674 0.967-0.905c0.415-0.229 0.862-0.344 1.343-0.344 c0.624 0 1.3 0.2 1.9 0.592c0.633 0.4 1.4 0.8 2.2 1.312c0.8 0.5 1.7 0.9 2.8 1.3 c1.036 0.4 2.3 0.6 3.7 0.592c1.916 0 3.402-0.421 4.462-1.265c1.063-0.843 1.593-2.179 1.593-4.008 c0-1.062-0.293-1.928-0.875-2.59c-0.584-0.668-1.345-1.217-2.293-1.656c-0.945-0.438-2.021-0.822-3.229-1.154 c-1.208-0.333-2.446-0.701-3.715-1.108c-1.271-0.404-2.508-0.907-3.716-1.499c-1.208-0.593-2.284-1.373-3.229-2.341 c-0.948-0.967-1.712-2.173-2.293-3.62c-0.582-1.447-0.874-3.23-0.874-5.353c0-1.705 0.342-3.37 1.031-4.993 s1.694-3.067 3.027-4.338c1.331-1.271 2.964-2.285 4.897-3.043c1.936-0.762 4.153-1.138 6.649-1.138 c1.393 0 2.8 0.1 4.1 0.326c1.322 0.2 2.6 0.5 3.8 0.967s2.292 0.9 3.3 1.5 c1.031 0.6 2 1.3 2.8 2.015L341.621 489.458z"/>
		<path fill="#FFFFFF" d="M395.177 480.221v8.363h-12.796v37.109h-10.547v-37.109h-12.795v-8.363H395.177z"/>
		<path fill="#FFFFFF" d="M428.818 480.221v8.115h-18.664v10.612h14.296v7.804h-14.296v10.828h18.664v8.114h-29.276v-45.473 L428.818 480.221L428.818 480.221z"/>
		<path fill="#FFFFFF" d="M460.153 489.458c-0.313 0.5-0.642 0.874-0.984 1.122c-0.341 0.25-0.785 0.377-1.325 0.4 c-0.48 0-0.995-0.151-1.546-0.455c-0.552-0.301-1.176-0.639-1.871-1.014c-0.697-0.374-1.491-0.712-2.388-1.014 c-0.894-0.304-1.914-0.455-3.06-0.455c-1.977 0-3.448 0.423-4.415 1.265c-0.967 0.844-1.452 1.983-1.452 3.4 c0 0.9 0.3 1.7 0.9 2.277c0.583 0.6 1.3 1.1 2.3 1.563c0.948 0.4 2 0.8 3.2 1.2 c1.22 0.4 2.5 0.8 3.7 1.217c1.268 0.4 2.5 1 3.7 1.576c1.217 0.6 2.3 1.4 3.2 2.3 c0.945 0.9 1.7 2.1 2.3 3.42c0.584 1.3 0.9 3 0.9 4.852c0 2.101-0.364 4.069-1.092 5.9 c-0.729 1.832-1.784 3.429-3.169 4.792c-1.384 1.363-3.089 2.435-5.117 3.215c-2.028 0.779-4.334 1.171-6.913 1.2 c-1.414 0-2.854-0.146-4.323-0.437c-1.469-0.294-2.887-0.703-4.262-1.234c-1.373-0.528-2.662-1.158-3.87-1.888 c-1.208-0.729-2.259-1.54-3.152-2.436l3.12-4.93c0.229-0.375 0.551-0.674 0.967-0.905c0.415-0.229 0.862-0.344 1.343-0.344 c0.625 0 1.3 0.2 1.9 0.592c0.633 0.4 1.4 0.8 2.2 1.312c0.8 0.5 1.7 0.9 2.8 1.3 c1.038 0.4 2.3 0.6 3.7 0.592c1.916 0 3.401-0.421 4.464-1.265c1.062-0.843 1.59-2.179 1.59-4.008 c0-1.062-0.292-1.928-0.874-2.59c-0.582-0.668-1.346-1.217-2.292-1.656c-0.945-0.438-2.022-0.822-3.23-1.154 c-1.208-0.333-2.445-0.701-3.714-1.108c-1.271-0.404-2.507-0.907-3.715-1.499c-1.208-0.593-2.285-1.373-3.23-2.341 c-0.946-0.967-1.712-2.173-2.292-3.62c-0.582-1.447-0.874-3.23-0.874-5.353c0-1.705 0.341-3.37 1.03-4.993 c0.688-1.623 1.694-3.067 3.027-4.338c1.331-1.271 2.965-2.285 4.898-3.043c1.935-0.762 4.153-1.138 6.647-1.138 c1.394 0 2.8 0.1 4.1 0.326c1.323 0.2 2.6 0.5 3.8 0.967c1.187 0.4 2.3 0.9 3.3 1.5 c1.031 0.6 1.9 1.3 2.8 2.015L460.153 489.458z"/>
		<path fill="#FFFFFF" d="M501.661 480.221v8.363h-12.796v37.109h-10.547v-37.109h-12.795v-8.363H501.661z"/>
		<path fill="#FFFFFF" d="M517.58 525.693h-10.611v-45.473h10.611V525.693z"/>
		<path fill="#FFFFFF" d="M532.716 480.283c0.313 0 0.6 0.1 0.8 0.232c0.248 0.1 0.5 0.3 0.7 0.5 c0.229 0.2 0.5 0.5 0.8 0.845l21.597 27.311c-0.084-0.875-0.144-1.723-0.188-2.545c-0.043-0.823-0.063-1.596-0.063-2.325 v-24.063h9.301v45.473h-5.494c-0.812 0-1.496-0.125-2.059-0.375c-0.564-0.25-1.104-0.707-1.623-1.373l-21.441-27.092 c0.063 0.8 0.1 1.6 0.2 2.326c0.042 0.8 0.1 1.5 0.1 2.137v24.375h-9.297v-45.474h5.556 C532.018 480.2 532.4 480.2 532.7 480.283z"/>
		<path fill="#FFFFFF" d="M594.604 518.078c1.457 0 2.746-0.125 3.87-0.374c1.124-0.25 2.187-0.584 3.185-0.999v-6.898h-4.495 c-0.665 0-1.187-0.178-1.562-0.53c-0.374-0.353-0.562-0.8-0.562-1.341v-5.805h16.167v19.193c-1.164 0.853-2.377 1.587-3.634 2.2 c-1.26 0.614-2.602 1.12-4.027 1.515c-1.424 0.394-2.942 0.687-4.556 0.874c-1.611 0.187-3.345 0.281-5.197 0.3 c-3.327 0-6.409-0.588-9.236-1.764c-2.828-1.175-5.281-2.798-7.35-4.869c-2.07-2.069-3.695-4.525-4.87-7.365 c-1.176-2.841-1.764-5.926-1.764-9.255c0-3.39 0.563-6.506 1.686-9.348c1.122-2.84 2.732-5.289 4.821-7.351 c2.093-2.06 4.62-3.66 7.583-4.805c2.966-1.144 6.277-1.717 9.94-1.717c1.895 0 3.7 0.2 5.3 0.5 c1.662 0.3 3.2 0.7 4.6 1.28c1.405 0.5 2.7 1.2 3.9 1.934c1.166 0.8 2.2 1.6 3.1 2.437l-3.061 4.6 c-0.292 0.438-0.639 0.78-1.044 1.031c-0.403 0.252-0.851 0.375-1.325 0.375c-0.625 0-1.271-0.208-1.934-0.625 c-0.834-0.496-1.619-0.932-2.358-1.296c-0.74-0.363-1.492-0.661-2.263-0.889c-0.77-0.229-1.581-0.396-2.435-0.5 c-0.853-0.103-1.811-0.155-2.872-0.155c-1.976 0-3.754 0.349-5.338 1.047c-1.58 0.695-2.927 1.68-4.04 2.9 c-1.115 1.271-1.972 2.795-2.576 4.573c-0.603 1.778-0.905 3.762-0.905 5.946c0 2.4 0.3 4.6 1 6.4 c0.668 1.9 1.6 3.5 2.8 4.744c1.175 1.3 2.6 2.3 4.2 2.948C590.926 517.7 592.7 518.1 594.6 518.078z"/>
	</g>
</g>
</svg>
