<?xml version="1.0" encoding="utf-8"?>
<!-- Generator: Adobe Illustrator 18.1.1, SVG Export Plug-In . SVG Version: 6.00 Build 0)  -->
<!DOCTYPE svg PUBLIC "-//W3C//DTD SVG 1.1//EN" "http://www.w3.org/Graphics/SVG/1.1/DTD/svg11.dtd">
<svg version="1.1" xmlns="http://www.w3.org/2000/svg" xmlns:xlink="http://www.w3.org/1999/xlink" x="0px" y="0px"
	 viewBox="0 0 364.005 142.762" style="enable-background:new 0 0 364.005 142.762;" xml:space="preserve">
<g id="Layer_2">
	<g>
		<path style="fill:#FFFFFF;" d="M361.253,36.829c0.69,0.693,1.035,1.531,1.035,2.514c0,0.99-0.346,1.834-1.035,2.531
			c-0.691,0.697-1.527,1.047-2.514,1.047c-0.986,0-1.826-0.35-2.516-1.047c-0.685-0.697-1.029-1.541-1.029-2.531
			c0-0.982,0.346-1.82,1.035-2.514c0.693-0.697,1.529-1.047,2.51-1.047C359.722,35.782,360.56,36.132,361.253,36.829z
			 M361.663,36.429c-0.805-0.802-1.781-1.203-2.924-1.203c-1.137,0-2.107,0.401-2.908,1.203c-0.807,0.807-1.211,1.778-1.211,2.914
			c0,1.148,0.4,2.125,1.199,2.932c0.803,0.809,1.775,1.215,2.92,1.215c1.143,0,2.119-0.406,2.924-1.215
			c0.807-0.81,1.211-1.787,1.211-2.932C362.874,38.203,362.47,37.231,361.663,36.429z M359.351,39.151
			c-0.168,0.068-0.422,0.102-0.758,0.102h-0.721V37.61h0.682c0.441,0,0.764,0.057,0.963,0.169c0.201,0.112,0.303,0.334,0.303,0.663
			C359.819,38.792,359.663,39.028,359.351,39.151z M357.073,41.599h0.799v-1.789h0.631c0.424,0,0.719,0.049,0.887,0.146
			c0.287,0.169,0.43,0.516,0.43,1.041v0.359l0.016,0.147c0.004,0.019,0.008,0.035,0.012,0.051c0.004,0.016,0.008,0.029,0.012,0.045
			h0.748l-0.029-0.057c-0.018-0.037-0.031-0.115-0.039-0.236c-0.008-0.119-0.012-0.232-0.012-0.337v-0.332
			c0-0.229-0.082-0.463-0.246-0.703c-0.166-0.239-0.426-0.388-0.781-0.444c0.281-0.045,0.5-0.118,0.656-0.219
			c0.297-0.191,0.445-0.49,0.445-0.894c0-0.57-0.234-0.953-0.703-1.148c-0.264-0.107-0.676-0.162-1.238-0.162h-1.586V41.599z"/>
		<path style="fill:#FFFFFF;" d="M163.017,1.196c1,1.9,2,4.1,1.2,6.4c-5.301,9.799-17.2,10.199-27.601,10.799l-13.4-0.1l-50.3-1.9
			c-11.1-0.699-21.6,0.801-30.2,6c-2.4,1.9-4.9,4.101-4.9,7.201c0.9,2.299,3.6,2.5,5.9,2.6c5.6,0.199,10.3-1.7,15.1-3.301
			c1.5-0.299,3.2-0.199,4.5,0.601c1.4,0.899,1.6,2.5,1.7,4c0.2,1.5-0.4,2.601-1.3,3.601c-6.6,5-15.3,5.5-23.9,5.1
			c-6.4-0.2-11.4-3.801-13.5-9.5c-1.8-8.4,4.3-14.2,9.7-18.5c21.7-12.9,51.3-6.801,76.9-6.301c11.9,0.201,24.3,0.601,35.6-1.399
			c4.3-0.8,7.7-3.5,10.8-6.2C160.717-0.504,162.116,0.496,163.017,1.196z"/>
		<path style="fill:#FFFFFF;" d="M93.616,28.097l-0.1,2.1l-11.7,17l-20.3,28.799c-8.8,11.4-17.8,27-33.8,28.102
			c-9.7,1.398-19.1-2.5-24.2-9.5c-1.6-2.9-4.3-6.201-3.3-10.102c1.3-1.6,3.6-2.398,5.8-2.5c4.6,0.5,4.7,6.4,8,8.301
			c4,3.801,11.2,4.9,16.5,2.5c5.5-2.4,9.2-6.301,12.8-10.6l32.9-46.1c3.5-3.701,4.9-10.4,11.2-10.801
			C89.716,25.696,92.616,25.696,93.616,28.097z"/>
		<g>
			<circle style="fill:#FFFFFF;" cx="116.317" cy="42.946" r="6.25"/>
			<path style="fill:#FFFFFF;" d="M116.317,42.946"/>
		</g>
		<g>
			<circle style="fill:#FFFFFF;" cx="267.693" cy="35.946" r="6.25"/>
			<path style="fill:#FFFFFF;" d="M267.693,35.946"/>
		</g>
		<path style="fill:#FFFFFF;" d="M363.417,49.097c-0.5-1.101-1.801-1.301-2.9-1.5l-18.699-0.101l-0.4-0.399
			c0.799-1.601,1.6-3.301,2-5c-0.301-3.301-2.9-5.5-5.801-6.5c-1.299-0.201-2.699,0.199-3.5,1.1c-1.799,3.5-3.199,7.1-5.299,10.6
			c-4.102,0.5-9.701-1.4-12.102,2.301c-1,1.799-1.299,4.299-0.5,6.199c1.201,2.801,4.801,1.5,7.201,2.1
			c-0.4,1.101-0.9,2.4-1.701,3.601c-3.898,6.101-7.6,14.101-15.6,15.8c0.801-9.801-3.299-18.199-7.4-26.3
			c-1.398-2.601-1.199-6-3.6-8c-1.4-0.8-3.5-0.8-5.1-0.399c-1.301,0.5-1.9,1.5-2.4,2.699c-2.9,11.5-8.9,21.9-16.5,30.301
			c-2.4,2.699-6.4,5.199-10.4,3.799c-2-0.9-2.5-3.4-2.299-5.6c1.799-7.199,4.799-14,7.5-20.9c0.5-1.399,1.1-3,0.5-4.5
			c-1.1-1.699-3.201-2.1-5.301-2c-2.4,0-4.4,1.101-5.6,3c-3.1,8.101-6,16.701-9.4,24.5c-2.299,3.201-6.199,5.1-9.9,6.4
			c-3.299,0.699-7,0.199-9.199-2c3.199-2.4,5.9-4.9,8.6-8.1c4.5-5.4,6.6-13.1,3.801-19.9c-1.6-3.3-5.1-5.8-8.9-5.9
			c-8.1-0.1-13.801,5.601-17.301,11.601c-2.799,5.7-3.799,12.999-2.6,19.601c-2.199,1.699-4.1,3.398-6.699,4.398
			c-4.9,2.102-11.5,1.201-15.801-1.398c-2.1-1.4-3.9-3.102-4.5-5.602c9.6-7.5,17.201-15.398,23.701-25.898
			c4.398-8.301,9.699-19.601,3.398-28.601c-1.398-1.8-3.398-3-5.6-3.601c-6-1.199-11.4,1.201-15.4,4.801
			c-12.8,12.4-21.399,29.4-19.199,49.1c-6.7,5-13.7,9.9-22.2,12.699c-4.2,0.801-9.1,0.4-11.9-3.199c-1.3-2.199-0.6-5,0.4-7.199
			l11.4-19c4.3-0.5,9.3,0.299,13.399-0.801c2.5-1.199,4.2-4.199,4-7.199c-0.2-0.801-0.7-1.5-1.5-1.801
			c-3.2-0.199-6.899,0.1-10.2-0.199c0.601-1.801,2.301-3.301,2.101-5.4c-0.7-2.1-3-2.801-5-2.9c-6.4-1.4-6.3,5.7-9.3,8.5
			c-3.101,0.301-6.601-0.199-9.4,0.801c-2.4,1.6-3.6,3.799-3.5,6.799c0.2,3.4,4.4,1.701,6.7,2.4l-0.101,0.4
			c-8.1,10.8-11.899,25.199-27.2,28.5c-2.2,0.5-4.7,0.199-6-1.801c-0.6-1.4-0.7-3.4-0.3-4.9c2.2-6.799,8-12.1,10.4-18.799v-0.9
			c-0.3-1.8-2.2-2.699-3.7-3.1c-2.2-0.6-4.6-0.301-6.1,1.5c-3.1,4.199-5.9,9-9,13.1c-5.3,7.699-12.9,12.1-21.1,15.5
			c-1.9,1.1-4.5,0.699-5.9,2.699c-0.3,0.701-0.6,1.701-0.2,2.5c1.9,2.102,4.1,5.602,7.8,5c6.7-1.6,11.7-5.799,17.5-8.898
			c0.9,2.398,2.6,5.398,4.9,6.799c8,3.6,18.9,2.1,25.7-2.9c1.7-1,3-2.6,4.7-3.398c0.8,1.6,2.3,3.1,3.8,4.5
			c7.1,6.5,19.199,4.299,27.199,0.898c6-2.299,11.2-6.398,16.5-9.398c0.7,1,1.5,2,2.2,3.1c5.601,7.6,16.1,10.9,26,8.199
			c5-1.199,9.1-4,13.701-6.299c2.699,2.5,6.1,4.398,9.699,5.6c8.6,3.1,18.301,0.299,24.5-5.201c2,1.9,4.1,3.701,6.699,4.9
			c7.701,3.4,14.9-1.5,20.602-5.799c2.898,2.699,5.299,5.699,9.199,6.898c4.199,1.4,9.9,1.201,13-2.199c6.5,0.4,12.1-1.6,16.9-4.9
			c2.699,3.6,6.199,6.1,10.4,7.301c7.1,2,14.799,0.4,20.199-4.201c2.4-1.799,3.801-4.6,2.9-7.699
			c-0.201-1.199-1.301-2.199-2.301-2.801c-1.1-0.299-2.4-0.398-3.299,0.102c-2.9,2.398-6.301,4.6-10.301,4.799
			c-2.699,0.4-5.5-0.299-6.9-2.5c-1-1.699-0.799-4.1-0.199-5.9c2.199-5.299,5.199-9.999,8.199-14.898
			c8.4-0.101,16.201-0.201,24.5-0.601c1.6-0.399,3-1.8,3.5-3.3C364.017,52.597,364.318,50.597,363.417,49.097z M192.616,31.996
			c2.301-2.8,4.9-5.5,8.701-6.3c0.898-0.1,1.398,0.699,1.699,1.3c0.801,5.601-2.5,9.899-4.801,14.101
			c-4.6,6.799-10.1,14-16.8,19.899C181.317,49.696,186.417,40.296,192.616,31.996z M221.616,70.995
			c-2.199-5.299,0.701-10.699,3.701-14.699c1.1-1,4-3.3,4.5-0.5C230.616,62.395,226.318,67.796,221.616,70.995z M294.417,78.196
			c-0.4,0.799-1.201,1.5-2,1.799c-3.1,0.9-5.4-1.799-7-3.6l0.1-0.699l5.9-11.5C293.818,67.995,295.917,73.196,294.417,78.196z"/>
	</g>
</g>
<g id="Layer_1">
</g>
<g id="Titleist_Logos">
	<g>
		<path style="fill:#FFFFFF;" d="M101.053,142.529h-3.798c-0.425,0-0.775-0.099-1.051-0.297s-0.466-0.452-0.573-0.762l-1.247-3.682
			h-8.031l-1.247,3.682c-0.097,0.271-0.285,0.515-0.565,0.732s-0.624,0.326-1.029,0.326h-3.827l8.176-21.121h5.016L101.053,142.529z
			 M87.484,134.455h5.769l-1.942-5.784c-0.125-0.367-0.273-0.8-0.442-1.297c-0.169-0.498-0.336-1.037-0.5-1.617
			c-0.154,0.59-0.314,1.136-0.478,1.639c-0.165,0.503-0.319,0.938-0.464,1.305L87.484,134.455z"/>
		<path style="fill:#FFFFFF;" d="M116.085,137.064c0.116,0,0.232,0.021,0.348,0.065c0.116,0.043,0.227,0.118,0.333,0.225
			l1.943,2.044c-0.851,1.111-1.916,1.949-3.197,2.515c-1.28,0.565-2.795,0.849-4.544,0.849c-1.604,0-3.042-0.273-4.312-0.819
			c-1.271-0.546-2.348-1.3-3.232-2.262c-0.884-0.961-1.563-2.102-2.037-3.421c-0.473-1.319-0.71-2.752-0.71-4.298
			c0-1.575,0.271-3.022,0.812-4.342c0.541-1.319,1.297-2.457,2.269-3.414c0.972-0.957,2.133-1.7,3.486-2.232
			c1.353-0.531,2.846-0.797,4.479-0.797c0.792,0,1.539,0.07,2.24,0.21c0.701,0.141,1.355,0.333,1.964,0.58
			c0.608,0.246,1.169,0.541,1.681,0.884c0.512,0.344,0.966,0.723,1.363,1.139l-1.652,2.218c-0.106,0.135-0.232,0.259-0.377,0.369
			c-0.145,0.111-0.348,0.167-0.609,0.167c-0.174,0-0.338-0.039-0.493-0.116c-0.154-0.077-0.319-0.171-0.493-0.282
			s-0.365-0.232-0.573-0.362c-0.208-0.131-0.454-0.252-0.739-0.363c-0.285-0.11-0.619-0.205-1-0.282
			c-0.382-0.077-0.829-0.116-1.341-0.116c-0.89,0-1.701,0.157-2.436,0.472c-0.734,0.313-1.365,0.764-1.892,1.348
			c-0.527,0.585-0.938,1.293-1.232,2.124s-0.442,1.764-0.442,2.798c0,1.082,0.147,2.044,0.442,2.885s0.696,1.549,1.203,2.123
			c0.508,0.575,1.1,1.013,1.776,1.312s1.401,0.449,2.174,0.449c0.445,0,0.851-0.021,1.218-0.065
			c0.367-0.043,0.708-0.118,1.022-0.225s0.614-0.244,0.899-0.413c0.285-0.169,0.573-0.379,0.862-0.631
			c0.116-0.097,0.242-0.176,0.377-0.239C115.8,137.096,115.94,137.064,116.085,137.064z"/>
		<path style="fill:#FFFFFF;" d="M141.787,131.962c0,1.526-0.264,2.947-0.79,4.262c-0.527,1.314-1.269,2.457-2.225,3.428
			c-0.957,0.972-2.109,1.732-3.458,2.283s-2.844,0.827-4.486,0.827c-1.643,0-3.141-0.276-4.494-0.827
			c-1.354-0.551-2.511-1.312-3.472-2.283c-0.961-0.971-1.706-2.113-2.232-3.428s-0.79-2.735-0.79-4.262
			c0-1.527,0.263-2.947,0.79-4.262c0.527-1.314,1.271-2.455,2.232-3.422c0.961-0.966,2.119-1.725,3.472-2.275
			c1.353-0.551,2.851-0.826,4.494-0.826c1.643,0,3.138,0.277,4.486,0.833s2.5,1.317,3.458,2.283
			c0.957,0.967,1.698,2.107,2.225,3.421C141.523,129.028,141.787,130.444,141.787,131.962z M136.771,131.962
			c0-1.044-0.136-1.983-0.406-2.819c-0.271-0.836-0.66-1.544-1.167-2.124s-1.128-1.024-1.863-1.334
			c-0.735-0.309-1.571-0.464-2.508-0.464c-0.947,0-1.791,0.155-2.53,0.464c-0.739,0.31-1.362,0.754-1.87,1.334
			c-0.507,0.58-0.896,1.288-1.167,2.124c-0.271,0.836-0.406,1.775-0.406,2.819c0,1.053,0.135,1.998,0.406,2.834
			c0.27,0.836,0.659,1.544,1.167,2.123c0.508,0.58,1.131,1.022,1.87,1.327c0.739,0.304,1.583,0.456,2.53,0.456
			c0.937,0,1.773-0.152,2.508-0.456c0.734-0.305,1.355-0.747,1.863-1.327c0.507-0.579,0.896-1.287,1.167-2.123
			C136.635,133.96,136.771,133.015,136.771,131.962z"/>
		<path style="fill:#FFFFFF;" d="M152.92,138.659c0.657,0,1.244-0.109,1.761-0.326c0.517-0.218,0.954-0.529,1.312-0.936
			c0.357-0.405,0.631-0.9,0.819-1.485s0.283-1.249,0.283-1.993v-12.511h4.899v12.511c0,1.295-0.21,2.483-0.63,3.565
			c-0.42,1.083-1.022,2.016-1.805,2.798c-0.783,0.783-1.735,1.392-2.856,1.827c-1.121,0.435-2.382,0.652-3.783,0.652
			c-1.411,0-2.677-0.218-3.798-0.652c-1.121-0.436-2.073-1.044-2.855-1.827c-0.783-0.782-1.382-1.715-1.798-2.798
			c-0.416-1.082-0.623-2.271-0.623-3.565v-12.511h4.899v12.496c0,0.744,0.094,1.408,0.283,1.993s0.461,1.082,0.819,1.493
			c0.357,0.411,0.794,0.725,1.312,0.942C151.675,138.55,152.262,138.659,152.92,138.659z"/>
		<path style="fill:#FFFFFF;" d="M176.954,125.699c-0.145,0.232-0.297,0.406-0.457,0.521c-0.159,0.116-0.365,0.175-0.616,0.175
			c-0.222,0-0.461-0.07-0.717-0.211c-0.256-0.14-0.546-0.297-0.87-0.471s-0.693-0.331-1.109-0.471
			c-0.416-0.141-0.889-0.211-1.42-0.211c-0.918,0-1.602,0.196-2.051,0.587c-0.449,0.392-0.674,0.921-0.674,1.588
			c0,0.425,0.135,0.778,0.406,1.058c0.271,0.281,0.625,0.522,1.065,0.726c0.439,0.203,0.942,0.389,1.507,0.558
			c0.565,0.169,1.143,0.357,1.732,0.565s1.167,0.452,1.732,0.732s1.068,0.638,1.507,1.072c0.44,0.436,0.795,0.964,1.066,1.588
			c0.27,0.623,0.406,1.374,0.406,2.254c0,0.976-0.169,1.89-0.507,2.739c-0.338,0.851-0.829,1.593-1.472,2.226
			s-1.435,1.131-2.377,1.493c-0.942,0.362-2.013,0.544-3.211,0.544c-0.658,0-1.327-0.068-2.008-0.203
			c-0.681-0.136-1.341-0.326-1.979-0.573c-0.638-0.246-1.237-0.538-1.797-0.877c-0.561-0.338-1.049-0.715-1.464-1.131l1.449-2.29
			c0.106-0.174,0.256-0.313,0.45-0.42c0.193-0.106,0.401-0.16,0.623-0.16c0.29,0,0.583,0.093,0.877,0.275
			c0.295,0.184,0.628,0.387,1,0.609s0.799,0.425,1.283,0.608s1.053,0.275,1.711,0.275c0.889,0,1.58-0.195,2.073-0.587
			s0.739-1.012,0.739-1.862c0-0.493-0.135-0.895-0.406-1.203c-0.271-0.31-0.626-0.565-1.065-0.769c-0.44-0.203-0.94-0.382-1.5-0.536
			c-0.561-0.155-1.136-0.326-1.725-0.515s-1.165-0.421-1.725-0.696s-1.061-0.638-1.5-1.087c-0.439-0.449-0.795-1.01-1.065-1.682
			s-0.406-1.5-0.406-2.486c0-0.792,0.16-1.565,0.479-2.319s0.788-1.425,1.406-2.015c0.618-0.59,1.377-1.061,2.276-1.413
			c0.898-0.354,1.928-0.529,3.087-0.529c0.647,0,1.278,0.051,1.892,0.152s1.196,0.251,1.747,0.449s1.065,0.435,1.544,0.71
			c0.478,0.275,0.906,0.587,1.283,0.936L176.954,125.699z"/>
		<path style="fill:#FFFFFF;" d="M196.234,121.408v3.885h-5.943v17.236h-4.9v-17.236h-5.943v-3.885H196.234z"/>
		<path style="fill:#FFFFFF;" d="M203.627,142.529h-4.929v-21.121h4.929V142.529z"/>
		<path style="fill:#FFFFFF;" d="M221.733,137.064c0.115,0,0.231,0.021,0.348,0.065c0.116,0.043,0.227,0.118,0.333,0.225
			l1.942,2.044c-0.851,1.111-1.916,1.949-3.196,2.515s-2.795,0.849-4.544,0.849c-1.604,0-3.042-0.273-4.312-0.819
			c-1.271-0.546-2.349-1.3-3.233-2.262c-0.884-0.961-1.563-2.102-2.036-3.421c-0.474-1.319-0.711-2.752-0.711-4.298
			c0-1.575,0.271-3.022,0.812-4.342c0.541-1.319,1.297-2.457,2.269-3.414c0.971-0.957,2.133-1.7,3.486-2.232
			c1.353-0.531,2.846-0.797,4.479-0.797c0.792,0,1.538,0.07,2.239,0.21c0.7,0.141,1.355,0.333,1.964,0.58
			c0.609,0.246,1.17,0.541,1.682,0.884c0.513,0.344,0.967,0.723,1.363,1.139l-1.653,2.218c-0.106,0.135-0.231,0.259-0.377,0.369
			c-0.145,0.111-0.348,0.167-0.608,0.167c-0.174,0-0.339-0.039-0.493-0.116s-0.318-0.171-0.492-0.282
			c-0.175-0.111-0.365-0.232-0.573-0.362c-0.208-0.131-0.454-0.252-0.739-0.363c-0.285-0.11-0.618-0.205-1-0.282
			s-0.829-0.116-1.341-0.116c-0.89,0-1.701,0.157-2.436,0.472c-0.734,0.313-1.365,0.764-1.892,1.348
			c-0.527,0.585-0.938,1.293-1.232,2.124s-0.442,1.764-0.442,2.798c0,1.082,0.147,2.044,0.442,2.885s0.696,1.549,1.203,2.123
			c0.508,0.575,1.1,1.013,1.776,1.312c0.676,0.3,1.4,0.449,2.174,0.449c0.444,0,0.851-0.021,1.218-0.065
			c0.367-0.043,0.708-0.118,1.022-0.225c0.313-0.106,0.613-0.244,0.898-0.413s0.572-0.379,0.862-0.631
			c0.116-0.097,0.241-0.176,0.377-0.239C221.447,137.096,221.587,137.064,221.733,137.064z"/>
		<path style="fill:#FFFFFF;" d="M238.359,125.699c-0.146,0.232-0.298,0.406-0.457,0.521c-0.159,0.116-0.365,0.175-0.616,0.175
			c-0.223,0-0.462-0.07-0.718-0.211c-0.256-0.14-0.546-0.297-0.869-0.471c-0.324-0.174-0.693-0.331-1.109-0.471
			c-0.415-0.141-0.889-0.211-1.421-0.211c-0.918,0-1.602,0.196-2.051,0.587c-0.449,0.392-0.674,0.921-0.674,1.588
			c0,0.425,0.135,0.778,0.405,1.058c0.271,0.281,0.626,0.522,1.065,0.726c0.44,0.203,0.942,0.389,1.508,0.558
			s1.143,0.357,1.732,0.565s1.167,0.452,1.732,0.732s1.067,0.638,1.508,1.072c0.439,0.436,0.795,0.964,1.065,1.588
			c0.271,0.623,0.405,1.374,0.405,2.254c0,0.976-0.169,1.89-0.507,2.739c-0.339,0.851-0.829,1.593-1.472,2.226
			s-1.435,1.131-2.377,1.493s-2.013,0.544-3.211,0.544c-0.657,0-1.326-0.068-2.008-0.203c-0.682-0.136-1.341-0.326-1.979-0.573
			c-0.638-0.246-1.237-0.538-1.798-0.877c-0.561-0.338-1.049-0.715-1.464-1.131l1.449-2.29c0.106-0.174,0.256-0.313,0.449-0.42
			s0.401-0.16,0.624-0.16c0.29,0,0.582,0.093,0.877,0.275c0.294,0.184,0.628,0.387,1,0.609s0.8,0.425,1.283,0.608
			c0.482,0.184,1.053,0.275,1.71,0.275c0.89,0,1.58-0.195,2.073-0.587s0.739-1.012,0.739-1.862c0-0.493-0.136-0.895-0.406-1.203
			c-0.271-0.31-0.625-0.565-1.065-0.769c-0.439-0.203-0.939-0.382-1.5-0.536c-0.561-0.155-1.136-0.326-1.725-0.515
			c-0.59-0.188-1.165-0.421-1.726-0.696s-1.061-0.638-1.5-1.087c-0.44-0.449-0.795-1.01-1.065-1.682s-0.406-1.5-0.406-2.486
			c0-0.792,0.159-1.565,0.479-2.319s0.787-1.425,1.406-2.015c0.618-0.59,1.377-1.061,2.275-1.413
			c0.899-0.354,1.929-0.529,3.088-0.529c0.647,0,1.278,0.051,1.892,0.152c0.614,0.102,1.196,0.251,1.747,0.449
			s1.065,0.435,1.544,0.71s0.906,0.587,1.283,0.936L238.359,125.699z"/>
		<path style="fill:#FFFFFF;" d="M263.234,121.408v3.885h-5.943v17.236h-4.899v-17.236h-5.943v-3.885H263.234z"/>
		<path style="fill:#FFFFFF;" d="M278.86,121.408v3.77h-8.669v4.929h6.64v3.624h-6.64v5.03h8.669v3.769h-13.598v-21.121H278.86z"/>
		<path style="fill:#FFFFFF;" d="M293.414,125.699c-0.146,0.232-0.298,0.406-0.457,0.521c-0.159,0.116-0.365,0.175-0.616,0.175
			c-0.223,0-0.462-0.07-0.718-0.211c-0.256-0.14-0.546-0.297-0.869-0.471c-0.324-0.174-0.693-0.331-1.109-0.471
			c-0.415-0.141-0.889-0.211-1.421-0.211c-0.918,0-1.602,0.196-2.051,0.587c-0.449,0.392-0.674,0.921-0.674,1.588
			c0,0.425,0.135,0.778,0.405,1.058c0.271,0.281,0.626,0.522,1.065,0.726c0.44,0.203,0.942,0.389,1.508,0.558
			s1.143,0.357,1.732,0.565s1.167,0.452,1.732,0.732s1.067,0.638,1.508,1.072c0.439,0.436,0.795,0.964,1.065,1.588
			c0.271,0.623,0.405,1.374,0.405,2.254c0,0.976-0.169,1.89-0.507,2.739c-0.339,0.851-0.829,1.593-1.472,2.226
			s-1.435,1.131-2.377,1.493s-2.013,0.544-3.211,0.544c-0.657,0-1.326-0.068-2.008-0.203c-0.682-0.136-1.341-0.326-1.979-0.573
			c-0.638-0.246-1.237-0.538-1.798-0.877c-0.561-0.338-1.049-0.715-1.464-1.131l1.449-2.29c0.106-0.174,0.256-0.313,0.449-0.42
			s0.401-0.16,0.624-0.16c0.29,0,0.582,0.093,0.877,0.275c0.294,0.184,0.628,0.387,1,0.609s0.8,0.425,1.283,0.608
			c0.482,0.184,1.053,0.275,1.71,0.275c0.89,0,1.58-0.195,2.073-0.587s0.739-1.012,0.739-1.862c0-0.493-0.136-0.895-0.406-1.203
			c-0.271-0.31-0.625-0.565-1.065-0.769c-0.439-0.203-0.939-0.382-1.5-0.536c-0.561-0.155-1.136-0.326-1.725-0.515
			c-0.59-0.188-1.165-0.421-1.726-0.696s-1.061-0.638-1.5-1.087c-0.44-0.449-0.795-1.01-1.065-1.682s-0.406-1.5-0.406-2.486
			c0-0.792,0.159-1.565,0.479-2.319s0.787-1.425,1.406-2.015c0.618-0.59,1.377-1.061,2.275-1.413
			c0.899-0.354,1.929-0.529,3.088-0.529c0.647,0,1.278,0.051,1.892,0.152c0.614,0.102,1.196,0.251,1.747,0.449
			s1.065,0.435,1.544,0.71s0.906,0.587,1.283,0.936L293.414,125.699z"/>
		<path style="fill:#FFFFFF;" d="M312.693,121.408v3.885h-5.943v17.236h-4.899v-17.236h-5.943v-3.885H312.693z"/>
		<path style="fill:#FFFFFF;" d="M320.087,142.529h-4.929v-21.121h4.929V142.529z"/>
		<path style="fill:#FFFFFF;" d="M327.117,121.437c0.145,0.02,0.275,0.056,0.392,0.108c0.115,0.054,0.227,0.129,0.333,0.225
			c0.106,0.097,0.227,0.228,0.362,0.392l10.031,12.685c-0.039-0.406-0.067-0.8-0.087-1.182s-0.029-0.741-0.029-1.08v-11.177h4.32
			v21.121h-2.552c-0.377,0-0.695-0.058-0.956-0.174c-0.262-0.116-0.513-0.328-0.754-0.638l-9.959-12.583
			c0.029,0.367,0.053,0.728,0.072,1.08s0.029,0.684,0.029,0.993v11.321H324v-21.121h2.581
			C326.793,121.408,326.972,121.418,327.117,121.437z"/>
		<path style="fill:#FFFFFF;" d="M355.862,138.992c0.677,0,1.276-0.058,1.798-0.174s1.015-0.271,1.479-0.464v-3.204h-2.088
			c-0.309,0-0.551-0.082-0.725-0.246s-0.261-0.372-0.261-0.623v-2.696h7.509v8.915c-0.541,0.396-1.104,0.737-1.688,1.021
			c-0.585,0.285-1.208,0.52-1.87,0.703s-1.367,0.319-2.116,0.406s-1.554,0.131-2.414,0.131c-1.546,0-2.977-0.273-4.29-0.819
			c-1.314-0.546-2.453-1.3-3.414-2.262c-0.962-0.961-1.716-2.102-2.262-3.421s-0.819-2.752-0.819-4.298
			c0-1.575,0.262-3.022,0.783-4.342c0.521-1.319,1.269-2.457,2.239-3.414c0.972-0.957,2.146-1.7,3.522-2.232
			c1.378-0.531,2.916-0.797,4.617-0.797c0.88,0,1.706,0.072,2.479,0.217c0.772,0.146,1.485,0.344,2.138,0.595
			s1.249,0.551,1.79,0.898c0.541,0.349,1.024,0.726,1.45,1.131l-1.421,2.16c-0.136,0.203-0.297,0.362-0.485,0.479
			s-0.395,0.174-0.616,0.174c-0.29,0-0.59-0.097-0.898-0.29c-0.387-0.231-0.752-0.433-1.095-0.602
			c-0.344-0.169-0.693-0.307-1.051-0.413c-0.358-0.106-0.735-0.184-1.131-0.232c-0.396-0.048-0.841-0.072-1.334-0.072
			c-0.918,0-1.744,0.162-2.479,0.486c-0.734,0.323-1.36,0.78-1.877,1.369c-0.518,0.59-0.916,1.298-1.196,2.124
			s-0.421,1.747-0.421,2.762c0,1.121,0.155,2.116,0.464,2.986c0.31,0.869,0.737,1.604,1.283,2.203s1.193,1.056,1.942,1.37
			C354.154,138.835,354.974,138.992,355.862,138.992z"/>
	</g>
</g>
</svg>
